<?xml version="1.0" encoding="UTF-8" standalone="no"?>
<svg
   xmlns:dc="http://purl.org/dc/elements/1.1/"
   xmlns:cc="http://creativecommons.org/ns#"
   xmlns:rdf="http://www.w3.org/1999/02/22-rdf-syntax-ns#"
   xmlns:svg="http://www.w3.org/2000/svg"
   xmlns="http://www.w3.org/2000/svg"
   xmlns:sodipodi="http://sodipodi.sourceforge.net/DTD/sodipodi-0.dtd"
   xmlns:inkscape="http://www.inkscape.org/namespaces/inkscape"
   inkscape:version="0.92.5 (2060ec1f9f, 2020-04-08)"
   sodipodi:docname="ring_elements_104.svg"
   id="svg8"
   version="1.1"
   viewBox="0 0 596.9 292.1"
   height="11.5in"
   width="23.5in"
   inkscape:export-filename="C:\Users\jboley\Documents\development\github\kveik-ring\ring_elements_104.png"
   inkscape:export-xdpi="96"
   inkscape:export-ydpi="96">
  <defs
     id="defs2">
    <marker
       inkscape:isstock="true"
       style="overflow:visible"
       id="Arrow2Sstart"
       refX="0.0"
       refY="0.0"
       orient="auto"
       inkscape:stockid="Arrow2Sstart">
      <path
         transform="scale(0.3) translate(-2.3,0)"
         d="M 8.7185878,4.0337352 L -2.2072895,0.016013256 L 8.7185884,-4.0017078 C 6.9730900,-1.6296469 6.9831476,1.6157441 8.7185878,4.0337352 z "
         style="fill-rule:evenodd;stroke-width:0.625;stroke-linejoin:round;stroke:#000000;stroke-opacity:1;fill:#000000;fill-opacity:1"
         id="path949" />
    </marker>
  </defs>
  <sodipodi:namedview
     inkscape:snap-bbox-midpoints="true"
     inkscape:snap-bbox-edge-midpoints="true"
     inkscape:bbox-nodes="true"
     inkscape:snap-intersection-paths="true"
     inkscape:snap-global="true"
     objecttolerance="20.1"
     inkscape:snap-page="false"
     inkscape:document-rotation="0"
     inkscape:pagecheckerboard="false"
     units="in"
     inkscape:snap-grids="false"
     inkscape:window-maximized="1"
     inkscape:window-y="-11"
     inkscape:window-x="-11"
     inkscape:window-height="2066"
     inkscape:window-width="3840"
     inkscape:snap-bbox="true"
     showgrid="true"
     inkscape:current-layer="layer1"
     inkscape:document-units="in"
     inkscape:cy="557.23702"
     inkscape:cx="1124.212"
     inkscape:zoom="1.2879516"
     inkscape:pageshadow="2"
     inkscape:pageopacity="0"
     borderopacity="1.0"
     bordercolor="#666666"
     pagecolor="#ffffff"
     id="base">
    <inkscape:grid
       dotted="false"
       empspacing="4"
       spacingy="0.79375"
       spacingx="0.79375"
       units="in"
       id="grid3713"
       type="xygrid" />
  </sodipodi:namedview>
  <metadata
     id="metadata5">
    <rdf:RDF>
      <cc:Work
         rdf:about="">
        <dc:format>image/svg+xml</dc:format>
        <dc:type
           rdf:resource="http://purl.org/dc/dcmitype/StillImage" />
        <dc:title />
      </cc:Work>
    </rdf:RDF>
  </metadata>
  <g
     transform="translate(0,-220.8)"
     id="layer1"
     inkscape:groupmode="layer"
     inkscape:label="Layer 1">
    <path
       sodipodi:nodetypes="ccccccccccccc"
       inkscape:connector-curvature="0"
       id="rect3721"
       d="m 447.675,235.0748 60.32501,0.0127 V 220.8 l -60.30551,0.0569 -3.11869,3.51498 3.11869,3.57187 -3.11869,3.57187 3.11869,3.57188 m 41.24341,-8.75642 v 3.15658 H 473.0943 v -3.15658 z"
       style="fill:none;stroke:#000000;stroke-width:0.254;stroke-miterlimit:4;stroke-dasharray:none;stroke-opacity:1" />
    <path
       style="fill:none;stroke:#000000;stroke-width:0.254;stroke-miterlimit:4;stroke-dasharray:none;stroke-opacity:1"
       d="m 485.80041,235.0875 -3.2004,3.175 h -38.1 l 1e-5,14.2875 h 60.325 l 3.175,-2.38125 -3.175,-3.175 3.175,-3.175 -3.175,-3.175 3.175,-3.175 -3.175,-2.38125 m -41.2628,11.93688 v -3.15659 h 15.84361 v 3.15659 z"
       id="rect3721-7"
       inkscape:connector-curvature="0"
       sodipodi:nodetypes="cccccccccccccccc" />
    <path
       style="fill:none;stroke:#000000;stroke-width:0.254;stroke-miterlimit:4;stroke-dasharray:none;stroke-opacity:1"
       d="m 466.70684,270.0125 3.19317,-3.175 h 38.1 V 252.55 h -3.175 m -57.15,0 -3.0992,2.3745 3.11868,3.15658 -3.11868,3.15659 3.11868,3.15658 -3.11868,3.15659 3.11868,2.46166 m 41.24342,-11.93142 v 3.15658 H 473.0943 v -3.15658 z"
       id="rect3721-73"
       inkscape:connector-curvature="0"
       sodipodi:nodetypes="ccccccccccccccccc" />
    <path
       style="fill:none;stroke:#000000;stroke-width:0.254;stroke-miterlimit:4;stroke-dasharray:none;stroke-opacity:1"
       d="m 466.70684,301.7625 3.19317,-3.175 h 38.1 V 284.3 h -3.175 m -57.15,0 -3.0992,2.3745 3.11868,3.15658 -3.11868,3.15659 3.11868,3.15658 -3.11868,3.15658 3.11868,2.46167 m 41.24342,-11.93142 v 3.15658 H 473.0943 v -3.15658 z"
       id="rect3721-73-9-8"
       inkscape:connector-curvature="0"
       sodipodi:nodetypes="ccccccccccccccccc" />
    <path
       sodipodi:nodetypes="cccccccccccccccc"
       inkscape:connector-curvature="0"
       id="rect3721-7-2"
       d="m 485.8004,266.8375 -3.2004,3.175 h -38.1 l 10e-6,14.2875 h 60.325 l 3.175,-2.38125 -3.175,-3.175 3.175,-3.175 -3.175,-3.175 3.175,-3.175 -3.175,-2.38125 m -41.2628,11.93688 v -3.15659 h 15.84361 v 3.15659 z"
       style="fill:none;stroke:#000000;stroke-width:0.254;stroke-miterlimit:4;stroke-dasharray:none;stroke-opacity:1" />
    <path
       style="fill:none;stroke:#000000;stroke-width:0.254;stroke-miterlimit:4;stroke-dasharray:none;stroke-opacity:1"
       d="m 485.8004,298.5875 -3.2004,3.175 h -38.1 l 10e-6,14.2875 h 60.325 l 3.175,-2.38125 -3.175,-3.175 3.175,-3.175 -3.175,-3.175 3.175,-3.175 -3.175,-2.38125 m -41.2628,11.93688 v -3.15659 h 15.84361 v 3.15659 z"
       id="rect3721-7-2-3"
       inkscape:connector-curvature="0"
       sodipodi:nodetypes="cccccccccccccccc" />
    <path
       sodipodi:nodetypes="ccccccccccccccccc"
       inkscape:connector-curvature="0"
       id="rect3721-73-9"
       d="m 466.70684,333.5125 3.19317,-3.175 h 38.1 V 316.05 h -3.175 m -57.15,0 -3.0992,2.3745 3.11868,3.15659 -3.11868,3.15658 3.11868,3.15658 -3.11868,3.15659 3.11868,2.46167 m 41.24342,-11.93143 v 3.15659 H 473.0943 v -3.15659 z"
       style="fill:none;stroke:#000000;stroke-width:0.254;stroke-miterlimit:4;stroke-dasharray:none;stroke-opacity:1" />
    <path
       sodipodi:nodetypes="ccccccccccccccccc"
       inkscape:connector-curvature="0"
       id="rect3721-73-9-8-2"
       d="m 466.70684,365.2625 3.19317,-3.175 h 38.1 V 347.8 h -3.175 m -57.15,0 -3.0992,2.3745 3.11868,3.15658 -3.11868,3.15659 3.11868,3.15658 -3.11868,3.15658 3.11868,2.46167 m 41.24342,-11.93142 v 3.15658 H 473.0943 v -3.15658 z"
       style="fill:none;stroke:#000000;stroke-width:0.254;stroke-miterlimit:4;stroke-dasharray:none;stroke-opacity:1" />
    <path
       style="fill:none;stroke:#000000;stroke-width:0.254;stroke-miterlimit:4;stroke-dasharray:none;stroke-opacity:1"
       d="m 485.8004,330.3375 -3.2004,3.175 h -38.1 l 10e-6,14.2875 h 60.325 l 3.175,-2.38125 -3.175,-3.175 3.175,-3.175 -3.175,-3.175 3.175,-3.175 -3.175,-2.38125 m -41.2628,11.93688 v -3.15659 h 15.84361 v 3.15659 z"
       id="rect3721-7-2-7"
       inkscape:connector-curvature="0"
       sodipodi:nodetypes="cccccccccccccccc" />
    <path
       sodipodi:nodetypes="cccccccccccccccc"
       inkscape:connector-curvature="0"
       id="rect3721-7-2-3-8"
       d="m 485.8004,362.0875 -3.2004,3.175 h -38.1 l 10e-6,14.2875 h 60.325 l 3.175,-2.38125 -3.175,-3.175 3.175,-3.175 -3.175,-3.175 3.175,-3.175 -3.175,-2.38125 m -41.2628,11.93688 v -3.15659 h 15.84361 v 3.15659 z"
       style="fill:none;stroke:#000000;stroke-width:0.254;stroke-miterlimit:4;stroke-dasharray:none;stroke-opacity:1" />
    <path
       sodipodi:nodetypes="ccccccccccccccccc"
       inkscape:connector-curvature="0"
       id="rect3721-73-8"
       d="m 466.70684,397.0125 3.19317,-3.175 h 38.1 V 379.55 h -3.175 m -57.15,0 -3.0992,2.3745 3.11868,3.15659 -3.11868,3.15658 3.11868,3.15658 -3.11868,3.15659 3.11868,2.46167 m 41.24342,-11.93143 v 3.15658 H 473.0943 v -3.15658 z"
       style="fill:none;stroke:#000000;stroke-width:0.254;stroke-miterlimit:4;stroke-dasharray:none;stroke-opacity:1" />
    <path
       style="fill:none;stroke:#000000;stroke-width:0.254;stroke-miterlimit:4;stroke-dasharray:none;stroke-opacity:1"
       d="m 485.8004,393.8375 -3.2004,3.175 h -38.1 l 10e-6,14.2875 h 60.325 l 3.175,-2.38125 -3.175,-3.175 3.175,-3.175 -3.175,-3.175 3.175,-3.175 -3.175,-2.38125 m -41.2628,11.93688 v -3.15659 h 15.84361 v 3.15659 z"
       id="rect3721-7-2-5"
       inkscape:connector-curvature="0"
       sodipodi:nodetypes="cccccccccccccccc" />
    <path
       style="fill:none;stroke:#000000;stroke-width:0.254;stroke-miterlimit:4;stroke-dasharray:none;stroke-opacity:1"
       d="m 168.29319,238.2625 -3.19317,-3.175 h -38.1 V 220.8 l 60.30551,0.0569 3.11869,2.3176 -3.11869,3.15659 3.11869,3.15658 -3.11869,3.15658 3.11869,3.15659 -3.11869,2.46167 m -41.24341,-11.93142 v 3.15658 h 15.84361 v -3.15658 z"
       id="rect3721-732"
       inkscape:connector-curvature="0"
       sodipodi:nodetypes="cccccccccccccccc" />
    <path
       sodipodi:nodetypes="cccccccccccccccc"
       inkscape:connector-curvature="0"
       id="rect3721-7-5"
       d="m 149.19962,235.0875 3.2004,3.175 h 38.1 m -1e-5,14.2875 h -60.325 l -3.175,-2.38125 3.175,-3.175 -3.175,-3.175 3.175,-3.175 -3.175,-3.175 3.175,-2.38125 m 41.2628,11.93688 v -3.15659 H 155.5942 v 3.15659 z"
       style="fill:none;stroke:#000000;stroke-width:0.254;stroke-miterlimit:4;stroke-dasharray:none;stroke-opacity:1" />
    <path
       sodipodi:nodetypes="ccccccccccccccccc"
       inkscape:connector-curvature="0"
       id="rect3721-73-3"
       d="m 168.29319,270.0125 -3.19317,-3.175 h -38.1 V 252.55 h 3.175 m 57.15,0 3.0992,2.3745 -3.11868,3.15659 3.11868,3.15658 -3.11868,3.15658 3.11868,3.15659 -3.11868,2.46167 m -41.24342,-11.93143 v 3.15659 h 15.84361 v -3.15659 z"
       style="fill:none;stroke:#000000;stroke-width:0.254;stroke-miterlimit:4;stroke-dasharray:none;stroke-opacity:1" />
    <path
       sodipodi:nodetypes="ccccccccccccccccc"
       inkscape:connector-curvature="0"
       id="rect3721-73-9-8-9"
       d="m 168.29319,301.7625 -3.19317,-3.175 h -38.1 V 284.3 h 3.175 m 57.15,0 3.0992,2.3745 -3.11868,3.15658 3.11868,3.15659 -3.11868,3.15658 3.11868,3.15658 -3.11868,2.46167 m -41.24342,-11.93142 v 3.15658 h 15.84361 v -3.15658 z"
       style="fill:none;stroke:#000000;stroke-width:0.254;stroke-miterlimit:4;stroke-dasharray:none;stroke-opacity:1" />
    <path
       style="fill:none;stroke:#000000;stroke-width:0.254;stroke-miterlimit:4;stroke-dasharray:none;stroke-opacity:1"
       d="m 149.19963,266.8375 3.2004,3.175 h 38.1 m -1e-5,14.2875 h -60.325 l -3.175,-2.38125 3.175,-3.175 -3.175,-3.175 3.175,-3.175 -3.175,-3.175 3.175,-2.38125 m 41.2628,11.93688 v -3.15659 h -15.84361 v 3.15659 z"
       id="rect3721-7-2-8"
       inkscape:connector-curvature="0"
       sodipodi:nodetypes="cccccccccccccccc" />
    <path
       sodipodi:nodetypes="cccccccccccccccc"
       inkscape:connector-curvature="0"
       id="rect3721-7-2-3-6"
       d="m 149.19963,298.5875 3.2004,3.175 h 38.1 m -1e-5,14.2875 h -60.325 l -3.175,-2.38125 3.175,-3.175 -3.175,-3.175 3.175,-3.175 -3.175,-3.175 3.175,-2.38125 m 41.2628,11.93688 v -3.15659 h -15.84361 v 3.15659 z"
       style="fill:none;stroke:#000000;stroke-width:0.254;stroke-miterlimit:4;stroke-dasharray:none;stroke-opacity:1" />
    <path
       style="fill:none;stroke:#000000;stroke-width:0.254;stroke-miterlimit:4;stroke-dasharray:none;stroke-opacity:1"
       d="m 168.29319,333.5125 -3.19317,-3.175 h -38.1 V 316.05 h 3.175 m 57.15,0 3.0992,2.3745 -3.11868,3.15659 3.11868,3.15658 -3.11868,3.15658 3.11868,3.15659 -3.11868,2.46167 m -41.24342,-11.93143 v 3.15659 h 15.84361 v -3.15659 z"
       id="rect3721-73-9-5"
       inkscape:connector-curvature="0"
       sodipodi:nodetypes="ccccccccccccccccc" />
    <path
       style="fill:none;stroke:#000000;stroke-width:0.254;stroke-miterlimit:4;stroke-dasharray:none;stroke-opacity:1"
       d="m 168.29319,365.2625 -3.19317,-3.175 h -38.1 V 347.8 h 3.175 m 57.15,0 3.0992,2.3745 -3.11868,3.15658 3.11868,3.15659 -3.11868,3.15658 3.11868,3.15658 -3.11868,2.46167 m -41.24342,-11.93142 v 3.15658 h 15.84361 v -3.15658 z"
       id="rect3721-73-9-8-2-5"
       inkscape:connector-curvature="0"
       sodipodi:nodetypes="ccccccccccccccccc" />
    <path
       sodipodi:nodetypes="cccccccccccccccc"
       inkscape:connector-curvature="0"
       id="rect3721-7-2-7-1"
       d="m 149.19963,330.3375 3.2004,3.175 h 38.1 m -1e-5,14.2875 h -60.325 l -3.175,-2.38125 3.175,-3.175 -3.175,-3.175 3.175,-3.175 -3.175,-3.175 3.175,-2.38125 m 41.2628,11.93688 v -3.15659 h -15.84361 v 3.15659 z"
       style="fill:none;stroke:#000000;stroke-width:0.254;stroke-miterlimit:4;stroke-dasharray:none;stroke-opacity:1" />
    <path
       style="fill:none;stroke:#000000;stroke-width:0.254;stroke-miterlimit:4;stroke-dasharray:none;stroke-opacity:1"
       d="m 149.19963,362.0875 3.2004,3.175 h 38.1 m -1e-5,14.2875 h -60.325 l -3.175,-2.38125 3.175,-3.175 -3.175,-3.175 3.175,-3.175 -3.175,-3.175 3.175,-2.38125 m 41.2628,11.93688 v -3.15659 h -15.84361 v 3.15659 z"
       id="rect3721-7-2-3-8-2"
       inkscape:connector-curvature="0"
       sodipodi:nodetypes="cccccccccccccccc" />
    <path
       style="fill:none;stroke:#000000;stroke-width:0.254;stroke-miterlimit:4;stroke-dasharray:none;stroke-opacity:1"
       d="m 168.29319,397.0125 -3.19317,-3.175 h -38.1 V 379.55 h 3.175 m 57.15,0 3.0992,2.3745 -3.11868,3.15659 3.11868,3.15658 -3.11868,3.15658 3.11868,3.15659 -3.11868,2.46167 m -41.24342,-11.93143 v 3.15658 h 15.84361 v -3.15658 z"
       id="rect3721-73-8-0"
       inkscape:connector-curvature="0"
       sodipodi:nodetypes="ccccccccccccccccc" />
    <path
       sodipodi:nodetypes="cccccccccccccccc"
       inkscape:connector-curvature="0"
       id="rect3721-7-2-5-2"
       d="m 149.19963,393.8375 3.2004,3.175 h 38.1 m -1e-5,14.2875 h -60.325 l -3.175,-2.38125 3.175,-3.175 -3.175,-3.175 3.175,-3.175 -3.175,-3.175 3.175,-2.38125 m 41.2628,11.93688 v -3.15659 h -15.84361 v 3.15659 z"
       style="fill:none;stroke:#000000;stroke-width:0.254;stroke-miterlimit:4;stroke-dasharray:none;stroke-opacity:1" />
    <path
       style="fill:none;stroke:#000000;stroke-width:0.254;stroke-miterlimit:4;stroke-dasharray:none;stroke-opacity:1"
       d="m 85.706851,238.26289 3.19317,-3.17507 h 38.099999 m 0,-14.28782 -60.305509,0.0569 -3.11869,2.31765 3.11869,3.15666 -3.11869,3.15665 3.11869,3.15665 -3.11869,3.15665 3.11869,2.46173 m 41.243409,-11.93168 v 3.15665 H 92.094311 v -3.15665 z"
       id="rect3721-1"
       inkscape:connector-curvature="0"
       sodipodi:nodetypes="cccccccccccccccc" />
    <path
       sodipodi:nodetypes="cccccccccccccccc"
       inkscape:connector-curvature="0"
       id="rect3721-7-7"
       d="m 104.80042,235.08782 -3.2004,3.17507 H 63.500021 l 1e-5,14.28779 h 60.324999 l 3.175,-2.3813 -3.175,-3.17506 3.175,-3.17506 -3.175,-3.17507 3.175,-3.17507 -3.175,-2.3813 m -41.262799,11.93714 v -3.15666 h 15.84361 v 3.15666 z"
       style="fill:none;stroke:#000000;stroke-width:0.254;stroke-miterlimit:4;stroke-dasharray:none;stroke-opacity:1" />
    <path
       sodipodi:nodetypes="ccccccccccccccccc"
       inkscape:connector-curvature="0"
       id="rect3721-73-4"
       d="m 85.706851,270.01357 3.19317,-3.17507 h 38.099999 m 0,-14.28781 -3.175,-1e-5 m -57.149999,0 -3.0992,2.37457 3.11868,3.15664 -3.11868,3.15665 3.11868,3.15666 -3.11868,3.15665 3.11868,2.46172 m 41.243419,-11.93168 v 3.15665 H 92.094311 v -3.15665 z"
       style="fill:none;stroke:#000000;stroke-width:0.254;stroke-miterlimit:4;stroke-dasharray:none;stroke-opacity:1" />
    <path
       sodipodi:nodetypes="ccccccccccccccccc"
       inkscape:connector-curvature="0"
       id="rect3721-73-9-8-5"
       d="m 85.706851,301.76426 3.19317,-3.17507 h 38.099999 m 0,-14.28781 h -3.175 m -57.149999,0 -3.0992,2.37455 3.11868,3.15665 -3.11868,3.15666 3.11868,3.15665 -3.11868,3.15664 3.11868,2.46173 m 41.243419,-11.93168 v 3.15665 H 92.094311 v -3.15665 z"
       style="fill:none;stroke:#000000;stroke-width:0.254;stroke-miterlimit:4;stroke-dasharray:none;stroke-opacity:1" />
    <path
       style="fill:none;stroke:#000000;stroke-width:0.254;stroke-miterlimit:4;stroke-dasharray:none;stroke-opacity:1"
       d="m 104.80041,266.83849 -3.2004,3.17507 H 63.500011 l 10e-6,14.28781 h 60.324999 l 3.175,-2.3813 -3.175,-3.17507 3.175,-3.17507 -3.175,-3.17507 3.175,-3.17507 -3.175,-2.3813 m -41.262799,11.93715 v -3.15666 h 15.84361 v 3.15666 z"
       id="rect3721-7-2-6"
       inkscape:connector-curvature="0"
       sodipodi:nodetypes="cccccccccccccccc" />
    <path
       sodipodi:nodetypes="cccccccccccccccc"
       inkscape:connector-curvature="0"
       id="rect3721-7-2-3-7"
       d="m 104.80041,298.58919 -3.2004,3.17507 H 63.500011 l 10e-6,14.2878 h 60.324999 l 3.175,-2.3813 -3.175,-3.17507 3.175,-3.17506 -3.175,-3.17507 3.175,-3.17507 -3.175,-2.3813 m -41.262799,11.93714 v -3.15666 h 15.84361 v 3.15665 z"
       style="fill:none;stroke:#000000;stroke-width:0.254;stroke-miterlimit:4;stroke-dasharray:none;stroke-opacity:1" />
    <path
       style="fill:none;stroke:#000000;stroke-width:0.254;stroke-miterlimit:4;stroke-dasharray:none;stroke-opacity:1"
       d="m 85.706851,333.51493 3.19317,-3.17507 h 38.099999 m 0,-14.2878 h -3.175 m -57.149999,0 -3.0992,2.37455 3.11868,3.15665 -3.11868,3.15665 3.11868,3.15665 -3.11868,3.15666 3.11868,2.46172 m 41.243419,-11.93169 v 3.15666 H 92.094311 v -3.15666 z"
       id="rect3721-73-9-56"
       inkscape:connector-curvature="0"
       sodipodi:nodetypes="ccccccccccccccccc" />
    <path
       style="fill:none;stroke:#000000;stroke-width:0.254;stroke-miterlimit:4;stroke-dasharray:none;stroke-opacity:1"
       d="m 85.706851,365.26562 3.19317,-3.17507 h 38.099999 m 0,-14.28781 h -3.175 m -57.149999,0 -3.0992,2.37455 3.11868,3.15665 -3.11868,3.15666 3.11868,3.15664 -3.11868,3.15665 3.11868,2.46173 m 41.243419,-11.93168 v 3.15665 H 92.094311 v -3.15665 z"
       id="rect3721-73-9-8-2-3"
       inkscape:connector-curvature="0"
       sodipodi:nodetypes="ccccccccccccccccc" />
    <path
       sodipodi:nodetypes="cccccccccccccccc"
       inkscape:connector-curvature="0"
       id="rect3721-7-2-7-2"
       d="m 104.80041,330.33986 -3.2004,3.17507 H 63.500011 l 10e-6,14.28781 h 60.324999 l 3.175,-2.3813 -3.175,-3.17507 3.175,-3.17507 -3.175,-3.17507 3.175,-3.17507 -3.175,-2.3813 M 82.562221,342.277 v -3.15666 h 15.84361 v 3.15666 z"
       style="fill:none;stroke:#000000;stroke-width:0.254;stroke-miterlimit:4;stroke-dasharray:none;stroke-opacity:1" />
    <path
       style="fill:none;stroke:#000000;stroke-width:0.254;stroke-miterlimit:4;stroke-dasharray:none;stroke-opacity:1"
       d="m 104.80041,362.09055 -3.2004,3.17507 H 63.500011 l 10e-6,14.2878 h 60.324999 l 3.175,-2.3813 -3.175,-3.17507 3.175,-3.17506 -3.175,-3.17507 3.175,-3.17507 -3.175,-2.3813 m -41.262799,11.93713 v -3.15665 h 15.84361 v 3.15665 z"
       id="rect3721-7-2-3-8-6"
       inkscape:connector-curvature="0"
       sodipodi:nodetypes="cccccccccccccccc" />
    <path
       style="fill:none;stroke:#000000;stroke-width:0.254;stroke-miterlimit:4;stroke-dasharray:none;stroke-opacity:1"
       d="m 85.706851,397.0163 3.19317,-3.17507 h 38.099999 m 0,-14.28781 h -3.175 m -57.149999,0 -3.0992,2.37455 3.11868,3.15666 -3.11868,3.15665 3.11868,3.15665 -3.11868,3.15666 3.11868,2.46172 m 41.243419,-11.93169 v 3.15665 H 92.094311 v -3.15665 z"
       id="rect3721-73-8-21"
       inkscape:connector-curvature="0"
       sodipodi:nodetypes="ccccccccccccccccc" />
    <path
       sodipodi:nodetypes="cccccccccccccccc"
       inkscape:connector-curvature="0"
       id="rect3721-7-2-5-4"
       d="m 104.80041,393.84123 -3.2004,3.17507 H 63.500011 l 10e-6,14.28781 h 60.324999 l 3.175,-2.3813 -3.175,-3.17507 3.175,-3.17507 -3.175,-3.17507 3.175,-3.17507 -3.175,-2.3813 m -41.262799,11.93714 v -3.15666 h 15.84361 v 3.15666 z"
       style="fill:none;stroke:#000000;stroke-width:0.254;stroke-miterlimit:4;stroke-dasharray:none;stroke-opacity:1" />
    <path
       sodipodi:nodetypes="cccccccccccccccc"
       inkscape:connector-curvature="0"
       id="rect3721-732-4"
       d="m 41.293181,238.26289 -3.19317,-3.17507 H 1.0761195e-5 V 220.8 L 60.305521,220.8569 l 3.11869,2.31766 -3.11869,3.15665 3.11869,3.15665 -3.11869,3.15666 3.11869,3.15664 -3.11869,2.46173 m -41.24341,-11.93168 v 3.15665 h 15.84361 v -3.15665 z"
       style="fill:none;stroke:#000000;stroke-width:0.254;stroke-miterlimit:4;stroke-dasharray:none;stroke-opacity:1" />
    <path
       style="fill:none;stroke:#000000;stroke-width:0.254;stroke-miterlimit:4;stroke-dasharray:none;stroke-opacity:1"
       d="m 22.199611,235.08782 3.2004,3.17507 h 38.1 m -1e-5,14.2878 H 3.1750008 L 7.6119459e-7,250.16939 3.1750008,246.99432 7.6119459e-7,243.81926 3.1750008,240.64419 7.6119459e-7,237.46912 3.1750008,235.08782 m 41.2628002,11.93714 v -3.15666 h -15.84361 v 3.15666 z"
       id="rect3721-7-5-5"
       inkscape:connector-curvature="0"
       sodipodi:nodetypes="cccccccccccccccc" />
    <path
       style="fill:none;stroke:#000000;stroke-width:0.254;stroke-miterlimit:4;stroke-dasharray:none;stroke-opacity:1"
       d="m 41.293181,270.01357 -3.19317,-3.17507 H 1.0761195e-5 V 252.55069 H 3.1750108 m 57.1500002,0 3.0992,2.37456 -3.11868,3.15664 3.11868,3.15665 -3.11868,3.15666 3.11868,3.15665 -3.11868,2.46172 m -41.24342,-11.93168 v 3.15665 h 15.84361 v -3.15665 z"
       id="rect3721-73-3-9"
       inkscape:connector-curvature="0"
       sodipodi:nodetypes="ccccccccccccccccc" />
    <path
       style="fill:none;stroke:#000000;stroke-width:0.254;stroke-miterlimit:4;stroke-dasharray:none;stroke-opacity:1"
       d="m 41.293181,301.76426 -3.19317,-3.17507 H 1.0761195e-5 V 284.30138 H 3.1750108 m 57.1500002,0 3.0992,2.37455 -3.11868,3.15665 3.11868,3.15666 -3.11868,3.15664 3.11868,3.15665 -3.11868,2.46173 m -41.24342,-11.93168 v 3.15665 h 15.84361 v -3.15665 z"
       id="rect3721-73-9-8-9-7"
       inkscape:connector-curvature="0"
       sodipodi:nodetypes="ccccccccccccccccc" />
    <path
       sodipodi:nodetypes="cccccccccccccccc"
       inkscape:connector-curvature="0"
       id="rect3721-7-2-8-3"
       d="m 22.199621,266.8385 3.2004,3.17507 h 38.1 m -10e-6,14.28781 H 3.1750108 L 1.0761195e-5,281.92008 3.1750108,278.74501 1.0761195e-5,275.56994 3.1750108,272.39487 1.0761195e-5,269.2198 3.1750108,266.8385 m 41.2628002,11.93714 v -3.15666 h -15.84361 v 3.15666 z"
       style="fill:none;stroke:#000000;stroke-width:0.254;stroke-miterlimit:4;stroke-dasharray:none;stroke-opacity:1" />
    <path
       style="fill:none;stroke:#000000;stroke-width:0.254;stroke-miterlimit:4;stroke-dasharray:none;stroke-opacity:1"
       d="m 22.199621,298.58919 3.2004,3.17507 h 38.1 m -10e-6,14.2878 H 3.1750108 L 1.0761195e-5,313.67076 3.1750108,310.49569 1.0761195e-5,307.32063 3.1750108,304.14556 1.0761195e-5,300.97049 3.1750108,298.58919 m 41.2628002,11.93714 v -3.15666 h -15.84361 v 3.15666 z"
       id="rect3721-7-2-3-6-5"
       inkscape:connector-curvature="0"
       sodipodi:nodetypes="cccccccccccccccc" />
    <path
       sodipodi:nodetypes="ccccccccccccccccc"
       inkscape:connector-curvature="0"
       id="rect3721-73-9-5-2"
       d="m 41.293181,333.51493 -3.19317,-3.17507 H 1.0761195e-5 v -14.2878 H 3.1750108 m 57.1500002,0 3.0992,2.37455 -3.11868,3.15665 3.11868,3.15665 -3.11868,3.15665 3.11868,3.15666 -3.11868,2.46172 m -41.24342,-11.93169 v 3.15666 h 15.84361 v -3.15666 z"
       style="fill:none;stroke:#000000;stroke-width:0.254;stroke-miterlimit:4;stroke-dasharray:none;stroke-opacity:1" />
    <path
       sodipodi:nodetypes="ccccccccccccccccc"
       inkscape:connector-curvature="0"
       id="rect3721-73-9-8-2-5-6"
       d="m 41.293181,365.26562 -3.19317,-3.17507 H 1.0761195e-5 V 347.80274 H 3.1750108 m 57.1500002,0 3.0992,2.37455 -3.11868,3.15665 3.11868,3.15666 -3.11868,3.15664 3.11868,3.15665 -3.11868,2.46173 m -41.24342,-11.93168 v 3.15665 h 15.84361 v -3.15665 z"
       style="fill:none;stroke:#000000;stroke-width:0.254;stroke-miterlimit:4;stroke-dasharray:none;stroke-opacity:1" />
    <path
       style="fill:none;stroke:#000000;stroke-width:0.254;stroke-miterlimit:4;stroke-dasharray:none;stroke-opacity:1"
       d="m 22.199621,330.33986 3.2004,3.17507 h 38.1 m -10e-6,14.28781 H 3.1750108 L 1.0761195e-5,345.42144 3.1750108,342.24637 1.0761195e-5,339.0713 3.1750108,335.89623 1.0761195e-5,332.72116 3.1750108,330.33986 M 44.437811,342.277 v -3.15666 h -15.84361 v 3.15666 z"
       id="rect3721-7-2-7-1-8"
       inkscape:connector-curvature="0"
       sodipodi:nodetypes="cccccccccccccccc" />
    <path
       sodipodi:nodetypes="cccccccccccccccc"
       inkscape:connector-curvature="0"
       id="rect3721-7-2-3-8-2-9"
       d="m 22.199621,362.09055 3.2004,3.17507 h 38.1 m -10e-6,14.2878 H 3.1750108 L 1.0761195e-5,377.17212 3.1750108,373.99705 1.0761195e-5,370.82199 3.1750108,367.64692 1.0761195e-5,364.47185 3.1750108,362.09055 m 41.2628002,11.93713 v -3.15665 h -15.84361 v 3.15665 z"
       style="fill:none;stroke:#000000;stroke-width:0.254;stroke-miterlimit:4;stroke-dasharray:none;stroke-opacity:1" />
    <path
       sodipodi:nodetypes="ccccccccccccccccc"
       inkscape:connector-curvature="0"
       id="rect3721-73-8-0-9"
       d="m 41.293181,397.0163 -3.19317,-3.17507 H 1.0761195e-5 V 379.55342 H 3.1750108 m 57.1500002,0 3.0992,2.37455 -3.11868,3.15666 3.11868,3.15665 -3.11868,3.15665 3.11868,3.15666 -3.11868,2.46172 m -41.24342,-11.93169 v 3.15665 h 15.84361 v -3.15665 z"
       style="fill:none;stroke:#000000;stroke-width:0.254;stroke-miterlimit:4;stroke-dasharray:none;stroke-opacity:1" />
    <path
       style="fill:none;stroke:#000000;stroke-width:0.254;stroke-miterlimit:4;stroke-dasharray:none;stroke-opacity:1"
       d="m 22.199621,393.84123 3.2004,3.17507 h 38.1 m -10e-6,14.28781 H 3.1750108 L 1.0761195e-5,408.92281 3.1750108,405.74774 1.0761195e-5,402.57267 3.1750108,399.3976 1.0761195e-5,396.22253 3.1750108,393.84123 m 41.2628002,11.93714 v -3.15666 h -15.84361 v 3.15666 z"
       id="rect3721-7-2-5-2-5"
       inkscape:connector-curvature="0"
       sodipodi:nodetypes="cccccccccccccccc" />
    <path
       style="fill:none;stroke:#000000;stroke-width:0.254;stroke-miterlimit:4;stroke-dasharray:none;stroke-opacity:1"
       d="m 447.68486,411.3 -3.0992,2.3745 3.11868,3.15658 -3.11868,3.15659 3.11868,3.15658 -3.11868,3.15658 3.11868,2.46167 h 19.01235 l 3.19317,-3.175 h 38.1 V 411.3 h -3.175 m -15.8871,5.53108 v 3.15658 h -15.84361 v -3.15658 z"
       id="rect3721-73-9-8-2-9-5-7"
       inkscape:connector-curvature="0"
       sodipodi:nodetypes="ccccccccccccccccc" />
    <path
       sodipodi:nodetypes="ccccccccccccccccc"
       inkscape:connector-curvature="0"
       id="rect3721-73-9-8-2-9-5-7-3"
       d="m 187.33487,411.3 3.0992,2.3745 -3.11868,3.15659 3.11868,3.15658 -3.11868,3.15659 3.11868,3.15658 -3.11868,2.46166 h -19.01235 l -3.19317,-3.175 h -38.1 V 411.3 h 3.175 m 15.8871,5.53109 v 3.15658 h 15.84361 v -3.15658 z"
       style="fill:none;stroke:#000000;stroke-width:0.254;stroke-miterlimit:4;stroke-dasharray:none;stroke-opacity:1" />
    <path
       sodipodi:nodetypes="ccccccccccccccccc"
       inkscape:connector-curvature="0"
       id="rect3721-73-9-8-2-9-5-7-9"
       d="m 66.684871,411.31232 -3.0992,2.37455 3.11868,3.15666 -3.11868,3.15665 3.11868,3.15666 -3.11868,3.15665 3.11868,2.46171 h 19.01235 l 3.19317,-3.17507 h 38.099999 m 0,-14.28781 h -3.175 m -15.8871,5.53121 v 3.15665 H 92.104161 v -3.15665 z"
       style="fill:none;stroke:#000000;stroke-width:0.254;stroke-miterlimit:4;stroke-dasharray:none;stroke-opacity:1" />
    <path
       style="fill:none;stroke:#000000;stroke-width:0.254;stroke-miterlimit:4;stroke-dasharray:none;stroke-opacity:1"
       d="m 60.334861,411.31232 3.0992,2.37455 -3.11868,3.15666 3.11868,3.15665 -3.11868,3.15666 3.11868,3.15665 -3.11868,2.46171 h -19.01235 l -3.19317,-3.17507 H 0.00986076 V 411.31232 H 3.1848608 m 15.8871002,5.53121 v 3.15665 h 15.84361 v -3.15665 z"
       id="rect3721-73-9-8-2-9-5-7-3-8"
       inkscape:connector-curvature="0"
       sodipodi:nodetypes="ccccccccccccccccc" />
    <path
       sodipodi:nodetypes="cccccccccccccccc"
       inkscape:connector-curvature="0"
       id="rect3721-732-7"
       d="m 295.29318,238.2625 -3.19317,-3.175 h -38.1 V 220.8 l 60.30551,0.0569 3.11869,2.3176 -3.11869,3.15659 3.11869,3.15658 -3.11869,3.15658 3.11869,3.15659 -3.11869,2.46167 m -41.24341,-11.93142 v 3.15658 h 15.84362 v -3.15658 z"
       style="fill:none;stroke:#000000;stroke-width:0.254;stroke-miterlimit:4;stroke-dasharray:none;stroke-opacity:1" />
    <path
       style="fill:none;stroke:#000000;stroke-width:0.254;stroke-miterlimit:4;stroke-dasharray:none;stroke-opacity:1"
       d="m 276.19961,235.0875 3.2004,3.175 h 38.1 M 317.5,252.55 h -60.325 l -3.175,-2.38125 3.175,-3.175 -3.175,-3.175 3.175,-3.175 -3.175,-3.175 3.175,-2.38125 m 41.2628,11.93688 v -3.15659 h -15.84361 v 3.15659 z"
       id="rect3721-7-5-3"
       inkscape:connector-curvature="0"
       sodipodi:nodetypes="cccccccccccccccc" />
    <path
       style="fill:none;stroke:#000000;stroke-width:0.254;stroke-miterlimit:4;stroke-dasharray:none;stroke-opacity:1"
       d="m 295.29318,270.0125 -3.19317,-3.175 h -38.1 V 252.55 h 3.175 m 57.15,0 3.0992,2.3745 -3.11868,3.15659 3.11868,3.15658 -3.11868,3.15658 3.11868,3.15659 -3.11868,2.46167 m -41.24342,-11.93143 v 3.15659 h 15.84362 v -3.15659 z"
       id="rect3721-73-3-97"
       inkscape:connector-curvature="0"
       sodipodi:nodetypes="ccccccccccccccccc" />
    <path
       style="fill:none;stroke:#000000;stroke-width:0.254;stroke-miterlimit:4;stroke-dasharray:none;stroke-opacity:1"
       d="m 295.29318,301.7625 -3.19317,-3.175 h -38.1 V 284.3 h 3.175 m 57.15,0 3.0992,2.3745 -3.11868,3.15658 3.11868,3.15659 -3.11868,3.15658 3.11868,3.15658 -3.11868,2.46167 m -41.24342,-11.93142 v 3.15658 h 15.84362 v -3.15658 z"
       id="rect3721-73-9-8-9-79"
       inkscape:connector-curvature="0"
       sodipodi:nodetypes="ccccccccccccccccc" />
    <path
       sodipodi:nodetypes="cccccccccccccccc"
       inkscape:connector-curvature="0"
       id="rect3721-7-2-8-5"
       d="m 276.19962,266.8375 3.2004,3.175 h 38.1 m -1e-5,14.2875 h -60.325 l -3.175,-2.38125 3.175,-3.175 -3.175,-3.175 3.175,-3.175 -3.175,-3.175 3.175,-2.38125 m 41.2628,11.93688 v -3.15659 H 282.5942 v 3.15659 z"
       style="fill:none;stroke:#000000;stroke-width:0.254;stroke-miterlimit:4;stroke-dasharray:none;stroke-opacity:1" />
    <path
       style="fill:none;stroke:#000000;stroke-width:0.254;stroke-miterlimit:4;stroke-dasharray:none;stroke-opacity:1"
       d="m 276.19962,298.5875 3.2004,3.175 h 38.1 m -1e-5,14.2875 h -60.325 l -3.175,-2.38125 3.175,-3.175 -3.175,-3.175 3.175,-3.175 -3.175,-3.175 3.175,-2.38125 m 41.2628,11.93688 v -3.15659 H 282.5942 v 3.15659 z"
       id="rect3721-7-2-3-6-3"
       inkscape:connector-curvature="0"
       sodipodi:nodetypes="cccccccccccccccc" />
    <path
       sodipodi:nodetypes="ccccccccccccccccc"
       inkscape:connector-curvature="0"
       id="rect3721-73-9-5-3"
       d="m 295.29318,333.5125 -3.19317,-3.175 h -38.1 V 316.05 h 3.175 m 57.15,0 3.0992,2.3745 -3.11868,3.15659 3.11868,3.15658 -3.11868,3.15658 3.11868,3.15659 -3.11868,2.46167 m -41.24342,-11.93143 v 3.15659 h 15.84362 v -3.15659 z"
       style="fill:none;stroke:#000000;stroke-width:0.254;stroke-miterlimit:4;stroke-dasharray:none;stroke-opacity:1" />
    <path
       sodipodi:nodetypes="ccccccccccccccccc"
       inkscape:connector-curvature="0"
       id="rect3721-73-9-8-2-5-3"
       d="m 295.29318,365.2625 -3.19317,-3.175 h -38.1 V 347.8 h 3.175 m 57.15,0 3.0992,2.3745 -3.11868,3.15658 3.11868,3.15659 -3.11868,3.15658 3.11868,3.15658 -3.11868,2.46167 m -41.24342,-11.93142 v 3.15658 h 15.84362 v -3.15658 z"
       style="fill:none;stroke:#000000;stroke-width:0.254;stroke-miterlimit:4;stroke-dasharray:none;stroke-opacity:1" />
    <path
       style="fill:none;stroke:#000000;stroke-width:0.254;stroke-miterlimit:4;stroke-dasharray:none;stroke-opacity:1"
       d="m 276.19962,330.3375 3.2004,3.175 h 38.1 m -1e-5,14.2875 h -60.325 l -3.175,-2.38125 3.175,-3.175 -3.175,-3.175 3.175,-3.175 -3.175,-3.175 3.175,-2.38125 m 41.2628,11.93688 v -3.15659 H 282.5942 v 3.15659 z"
       id="rect3721-7-2-7-1-85"
       inkscape:connector-curvature="0"
       sodipodi:nodetypes="cccccccccccccccc" />
    <path
       sodipodi:nodetypes="cccccccccccccccc"
       inkscape:connector-curvature="0"
       id="rect3721-7-2-3-8-2-8"
       d="m 276.19962,362.0875 3.2004,3.175 h 38.1 m -1e-5,14.2875 h -60.325 l -3.175,-2.38125 3.175,-3.175 -3.175,-3.175 3.175,-3.175 -3.175,-3.175 3.175,-2.38125 m 41.2628,11.93688 v -3.15659 H 282.5942 v 3.15659 z"
       style="fill:none;stroke:#000000;stroke-width:0.254;stroke-miterlimit:4;stroke-dasharray:none;stroke-opacity:1" />
    <path
       sodipodi:nodetypes="ccccccccccccccccc"
       inkscape:connector-curvature="0"
       id="rect3721-73-8-0-96"
       d="m 295.29318,397.0125 -3.19317,-3.175 h -38.1 V 379.55 h 3.175 m 57.15,0 3.0992,2.3745 -3.11868,3.15659 3.11868,3.15658 -3.11868,3.15658 3.11868,3.15659 -3.11868,2.46167 m -41.24342,-11.93143 v 3.15658 h 15.84362 v -3.15658 z"
       style="fill:none;stroke:#000000;stroke-width:0.254;stroke-miterlimit:4;stroke-dasharray:none;stroke-opacity:1" />
    <path
       style="fill:none;stroke:#000000;stroke-width:0.254;stroke-miterlimit:4;stroke-dasharray:none;stroke-opacity:1"
       d="m 276.19962,393.8375 3.2004,3.175 h 38.1 m -1e-5,14.2875 h -60.325 l -3.175,-2.38125 3.175,-3.175 -3.175,-3.175 3.175,-3.175 -3.175,-3.175 3.175,-2.38125 m 41.2628,11.93688 v -3.15659 H 282.5942 v 3.15659 z"
       id="rect3721-7-2-5-2-4"
       inkscape:connector-curvature="0"
       sodipodi:nodetypes="cccccccccccccccc" />
    <path
       sodipodi:nodetypes="cccccccccccccccc"
       inkscape:connector-curvature="0"
       id="rect3721-1-7"
       d="m 212.70684,238.26289 3.19317,-3.17507 h 38.1 m 0,-14.28782 -60.30551,0.0569 -3.11869,2.31765 3.11869,3.15666 -3.11869,3.15665 3.11869,3.15665 -3.11869,3.15665 3.11869,2.46173 m 41.24341,-11.93168 v 3.15665 H 219.0943 v -3.15665 z"
       style="fill:none;stroke:#000000;stroke-width:0.254;stroke-miterlimit:4;stroke-dasharray:none;stroke-opacity:1" />
    <path
       style="fill:none;stroke:#000000;stroke-width:0.254;stroke-miterlimit:4;stroke-dasharray:none;stroke-opacity:1"
       d="m 231.80041,235.08782 -3.2004,3.17507 h -38.1 l 1e-5,14.28779 h 60.325 l 3.175,-2.3813 -3.175,-3.17506 3.175,-3.17506 -3.175,-3.17507 3.175,-3.17507 -3.175,-2.3813 m -41.2628,11.93714 v -3.15666 h 15.84361 v 3.15666 z"
       id="rect3721-7-7-0"
       inkscape:connector-curvature="0"
       sodipodi:nodetypes="cccccccccccccccc" />
    <path
       style="fill:none;stroke:#000000;stroke-width:0.254;stroke-miterlimit:4;stroke-dasharray:none;stroke-opacity:1"
       d="m 212.70684,270.01357 3.19317,-3.17507 h 38.1 m 0,-14.28781 -3.175,-1e-5 m -57.15,0 -3.0992,2.37457 3.11868,3.15664 -3.11868,3.15665 3.11868,3.15666 -3.11868,3.15665 3.11868,2.46172 m 41.24342,-11.93168 v 3.15665 H 219.0943 v -3.15665 z"
       id="rect3721-73-4-0"
       inkscape:connector-curvature="0"
       sodipodi:nodetypes="ccccccccccccccccc" />
    <path
       style="fill:none;stroke:#000000;stroke-width:0.254;stroke-miterlimit:4;stroke-dasharray:none;stroke-opacity:1"
       d="m 212.70684,301.76426 3.19317,-3.17507 h 38.1 m 0,-14.28781 h -3.175 m -57.15,0 -3.0992,2.37455 3.11868,3.15665 -3.11868,3.15666 3.11868,3.15665 -3.11868,3.15664 3.11868,2.46173 m 41.24342,-11.93168 v 3.15665 H 219.0943 v -3.15665 z"
       id="rect3721-73-9-8-5-1"
       inkscape:connector-curvature="0"
       sodipodi:nodetypes="ccccccccccccccccc" />
    <path
       sodipodi:nodetypes="cccccccccccccccc"
       inkscape:connector-curvature="0"
       id="rect3721-7-2-6-0"
       d="m 231.8004,266.83849 -3.2004,3.17507 h -38.1 l 1e-5,14.28781 h 60.325 l 3.175,-2.3813 -3.175,-3.17507 3.175,-3.17507 -3.175,-3.17507 3.175,-3.17507 -3.175,-2.3813 m -41.2628,11.93715 v -3.15666 h 15.84361 v 3.15666 z"
       style="fill:none;stroke:#000000;stroke-width:0.254;stroke-miterlimit:4;stroke-dasharray:none;stroke-opacity:1" />
    <path
       style="fill:none;stroke:#000000;stroke-width:0.254;stroke-miterlimit:4;stroke-dasharray:none;stroke-opacity:1"
       d="m 231.8004,298.58919 -3.2004,3.17507 h -38.1 l 1e-5,14.2878 h 60.325 l 3.175,-2.3813 -3.175,-3.17507 3.175,-3.17506 -3.175,-3.17507 3.175,-3.17507 -3.175,-2.3813 m -41.2628,11.93714 v -3.15666 h 15.84361 v 3.15665 z"
       id="rect3721-7-2-3-7-3"
       inkscape:connector-curvature="0"
       sodipodi:nodetypes="cccccccccccccccc" />
    <path
       sodipodi:nodetypes="ccccccccccccccccc"
       inkscape:connector-curvature="0"
       id="rect3721-73-9-56-0"
       d="m 212.70684,333.51493 3.19317,-3.17507 h 38.1 m 0,-14.2878 h -3.175 m -57.15,0 -3.0992,2.37455 3.11868,3.15665 -3.11868,3.15665 3.11868,3.15665 -3.11868,3.15666 3.11868,2.46172 m 41.24342,-11.93169 v 3.15666 H 219.0943 v -3.15666 z"
       style="fill:none;stroke:#000000;stroke-width:0.254;stroke-miterlimit:4;stroke-dasharray:none;stroke-opacity:1" />
    <path
       sodipodi:nodetypes="ccccccccccccccccc"
       inkscape:connector-curvature="0"
       id="rect3721-73-9-8-2-3-0"
       d="m 212.70684,365.26562 3.19317,-3.17507 h 38.1 m 0,-14.28781 h -3.175 m -57.15,0 -3.0992,2.37455 3.11868,3.15665 -3.11868,3.15666 3.11868,3.15664 -3.11868,3.15665 3.11868,2.46173 m 41.24342,-11.93168 v 3.15665 H 219.0943 v -3.15665 z"
       style="fill:none;stroke:#000000;stroke-width:0.254;stroke-miterlimit:4;stroke-dasharray:none;stroke-opacity:1" />
    <path
       style="fill:none;stroke:#000000;stroke-width:0.254;stroke-miterlimit:4;stroke-dasharray:none;stroke-opacity:1"
       d="m 231.8004,330.33986 -3.2004,3.17507 h -38.1 l 1e-5,14.28781 h 60.325 l 3.175,-2.3813 -3.175,-3.17507 3.175,-3.17507 -3.175,-3.17507 3.175,-3.17507 -3.175,-2.3813 m -41.2628,11.93714 v -3.15666 h 15.84361 v 3.15666 z"
       id="rect3721-7-2-7-2-3"
       inkscape:connector-curvature="0"
       sodipodi:nodetypes="cccccccccccccccc" />
    <path
       sodipodi:nodetypes="cccccccccccccccc"
       inkscape:connector-curvature="0"
       id="rect3721-7-2-3-8-6-8"
       d="m 231.8004,362.09055 -3.2004,3.17507 h -38.1 l 1e-5,14.2878 h 60.325 l 3.175,-2.3813 -3.175,-3.17507 3.175,-3.17506 -3.175,-3.17507 3.175,-3.17507 -3.175,-2.3813 m -41.2628,11.93713 v -3.15665 h 15.84361 v 3.15665 z"
       style="fill:none;stroke:#000000;stroke-width:0.254;stroke-miterlimit:4;stroke-dasharray:none;stroke-opacity:1" />
    <path
       sodipodi:nodetypes="ccccccccccccccccc"
       inkscape:connector-curvature="0"
       id="rect3721-73-8-21-3"
       d="m 212.70684,397.0163 3.19317,-3.17507 h 38.1 m 0,-14.28781 h -3.175 m -57.15,0 -3.0992,2.37455 3.11868,3.15666 -3.11868,3.15665 3.11868,3.15665 -3.11868,3.15666 3.11868,2.46172 m 41.24342,-11.93169 v 3.15665 H 219.0943 v -3.15665 z"
       style="fill:none;stroke:#000000;stroke-width:0.254;stroke-miterlimit:4;stroke-dasharray:none;stroke-opacity:1" />
    <path
       style="fill:none;stroke:#000000;stroke-width:0.254;stroke-miterlimit:4;stroke-dasharray:none;stroke-opacity:1"
       d="M 231.8004,393.84123 228.6,397.0163 h -38.1 l 1e-5,14.28781 h 60.325 l 3.175,-2.3813 -3.175,-3.17507 3.175,-3.17507 -3.175,-3.17507 3.175,-3.17507 -3.175,-2.3813 m -41.2628,11.93714 v -3.15666 h 15.84361 v 3.15666 z"
       id="rect3721-7-2-5-4-0"
       inkscape:connector-curvature="0"
       sodipodi:nodetypes="cccccccccccccccc" />
    <path
       style="fill:none;stroke:#000000;stroke-width:0.254;stroke-miterlimit:4;stroke-dasharray:none;stroke-opacity:1"
       d="m 314.33486,411.3 3.0992,2.3745 -3.11868,3.15659 3.11868,3.15658 -3.11868,3.1566 3.11868,3.15656 -3.11868,2.46166 h -19.01235 l -3.19317,-3.175 h -38.1 V 411.3 h 3.175 m 15.8871,5.53109 v 3.15658 h 15.84361 v -3.15658 z"
       id="rect3721-73-9-8-2-9-5-7-3-2"
       inkscape:connector-curvature="0"
       sodipodi:nodetypes="ccccccccccccccccc" />
    <path
       style="fill:none;stroke:#000000;stroke-width:0.254;stroke-miterlimit:4;stroke-dasharray:none;stroke-opacity:1"
       d="m 193.68486,411.31232 -3.0992,2.37455 3.11868,3.15666 -3.11868,3.15665 3.11868,3.15666 -3.11868,3.15664 3.11868,2.46171 h 19.01235 l 3.19317,-3.17505 h 38.1 m 0,-14.28782 h -3.175 m -15.8871,5.53121 v 3.15665 h -15.84361 v -3.15665 z"
       id="rect3721-73-9-8-2-9-5-7-9-4"
       inkscape:connector-curvature="0"
       sodipodi:nodetypes="ccccccccccccccccc" />
    <path
       style="fill:none;stroke:#000000;stroke-width:0.254;stroke-miterlimit:4;stroke-dasharray:none;stroke-opacity:1"
       d="m 422.29318,238.2625 -3.19317,-3.175 h -38.1 V 220.8 l 60.30551,0.0569 3.11869,2.3176 -3.11869,3.15659 3.11869,3.15658 -3.11869,3.15658 3.11869,3.15659 -3.11869,2.46167 m -41.24341,-11.93142 v 3.15658 h 15.84362 v -3.15658 z"
       id="rect3721-732-7-9"
       inkscape:connector-curvature="0"
       sodipodi:nodetypes="cccccccccccccccc" />
    <path
       sodipodi:nodetypes="cccccccccccccccc"
       inkscape:connector-curvature="0"
       id="rect3721-7-5-3-7"
       d="m 403.19961,235.0875 3.2004,3.175 h 38.1 M 444.5,252.55 h -60.325 l -3.175,-2.38125 3.175,-3.175 -3.175,-3.175 3.175,-3.175 -3.175,-3.175 3.175,-2.38125 m 41.2628,11.93688 v -3.15659 h -15.84361 v 3.15659 z"
       style="fill:none;stroke:#000000;stroke-width:0.254;stroke-miterlimit:4;stroke-dasharray:none;stroke-opacity:1" />
    <path
       sodipodi:nodetypes="ccccccccccccccccc"
       inkscape:connector-curvature="0"
       id="rect3721-73-3-97-5"
       d="m 422.29318,270.0125 -3.19317,-3.175 h -38.1 V 252.55 h 3.175 m 57.15,0 3.0992,2.3745 -3.11868,3.15659 3.11868,3.15658 -3.11868,3.15658 3.11868,3.15659 -3.11868,2.46167 m -41.24342,-11.93143 v 3.15659 h 15.84362 v -3.15659 z"
       style="fill:none;stroke:#000000;stroke-width:0.254;stroke-miterlimit:4;stroke-dasharray:none;stroke-opacity:1" />
    <path
       sodipodi:nodetypes="ccccccccccccccccc"
       inkscape:connector-curvature="0"
       id="rect3721-73-9-8-9-79-3"
       d="m 422.29318,301.7625 -3.19317,-3.175 h -38.1 V 284.3 h 3.175 m 57.15,0 3.0992,2.3745 -3.11868,3.15658 3.11868,3.15659 -3.11868,3.15658 3.11868,3.15658 -3.11868,2.46167 m -41.24342,-11.93142 v 3.15658 h 15.84362 v -3.15658 z"
       style="fill:none;stroke:#000000;stroke-width:0.254;stroke-miterlimit:4;stroke-dasharray:none;stroke-opacity:1" />
    <path
       style="fill:none;stroke:#000000;stroke-width:0.254;stroke-miterlimit:4;stroke-dasharray:none;stroke-opacity:1"
       d="m 403.19962,266.8375 3.2004,3.175 h 38.1 m -1e-5,14.2875 h -60.325 l -3.175,-2.38125 3.175,-3.175 -3.175,-3.175 3.175,-3.175 -3.175,-3.175 3.175,-2.38125 m 41.2628,11.93688 v -3.15659 H 409.5942 v 3.15659 z"
       id="rect3721-7-2-8-5-9"
       inkscape:connector-curvature="0"
       sodipodi:nodetypes="cccccccccccccccc" />
    <path
       sodipodi:nodetypes="cccccccccccccccc"
       inkscape:connector-curvature="0"
       id="rect3721-7-2-3-6-3-9"
       d="m 403.19962,298.5875 3.2004,3.175 h 38.1 m -1e-5,14.2875 h -60.325 l -3.175,-2.38125 3.175,-3.175 -3.175,-3.175 3.175,-3.175 -3.175,-3.175 3.175,-2.38125 m 41.2628,11.93688 v -3.15659 H 409.5942 v 3.15659 z"
       style="fill:none;stroke:#000000;stroke-width:0.254;stroke-miterlimit:4;stroke-dasharray:none;stroke-opacity:1" />
    <path
       style="fill:none;stroke:#000000;stroke-width:0.254;stroke-miterlimit:4;stroke-dasharray:none;stroke-opacity:1"
       d="m 422.29318,333.5125 -3.19317,-3.175 h -38.1 V 316.05 h 3.175 m 57.15,0 3.0992,2.3745 -3.11868,3.15659 3.11868,3.15658 -3.11868,3.15658 3.11868,3.15659 -3.11868,2.46167 m -41.24342,-11.93143 v 3.15659 h 15.84362 v -3.15659 z"
       id="rect3721-73-9-5-3-4"
       inkscape:connector-curvature="0"
       sodipodi:nodetypes="ccccccccccccccccc" />
    <path
       style="fill:none;stroke:#000000;stroke-width:0.254;stroke-miterlimit:4;stroke-dasharray:none;stroke-opacity:1"
       d="m 422.29318,365.2625 -3.19317,-3.175 h -38.1 V 347.8 h 3.175 m 57.15,0 3.0992,2.3745 -3.11868,3.15658 3.11868,3.15659 -3.11868,3.15658 3.11868,3.15658 -3.11868,2.46167 m -41.24342,-11.93142 v 3.15658 h 15.84362 v -3.15658 z"
       id="rect3721-73-9-8-2-5-3-9"
       inkscape:connector-curvature="0"
       sodipodi:nodetypes="ccccccccccccccccc" />
    <path
       sodipodi:nodetypes="cccccccccccccccc"
       inkscape:connector-curvature="0"
       id="rect3721-7-2-7-1-85-1"
       d="m 403.19962,330.3375 3.2004,3.175 h 38.1 m -1e-5,14.2875 h -60.325 l -3.175,-2.38125 3.175,-3.175 -3.175,-3.175 3.175,-3.175 -3.175,-3.175 3.175,-2.38125 m 41.2628,11.93688 v -3.15659 H 409.5942 v 3.15659 z"
       style="fill:none;stroke:#000000;stroke-width:0.254;stroke-miterlimit:4;stroke-dasharray:none;stroke-opacity:1" />
    <path
       style="fill:none;stroke:#000000;stroke-width:0.254;stroke-miterlimit:4;stroke-dasharray:none;stroke-opacity:1"
       d="m 403.19962,362.0875 3.2004,3.175 h 38.1 m -1e-5,14.2875 h -60.325 l -3.175,-2.38125 3.175,-3.175 -3.175,-3.175 3.175,-3.175 -3.175,-3.175 3.175,-2.38125 m 41.2628,11.93688 v -3.15659 H 409.5942 v 3.15659 z"
       id="rect3721-7-2-3-8-2-8-5"
       inkscape:connector-curvature="0"
       sodipodi:nodetypes="cccccccccccccccc" />
    <path
       style="fill:none;stroke:#000000;stroke-width:0.254;stroke-miterlimit:4;stroke-dasharray:none;stroke-opacity:1"
       d="m 422.29318,397.0125 -3.19317,-3.175 h -38.1 V 379.55 h 3.175 m 57.15,0 3.0992,2.3745 -3.11868,3.15659 3.11868,3.15658 -3.11868,3.15658 3.11868,3.15659 -3.11868,2.46167 m -41.24342,-11.93143 v 3.15658 h 15.84362 v -3.15658 z"
       id="rect3721-73-8-0-96-9"
       inkscape:connector-curvature="0"
       sodipodi:nodetypes="ccccccccccccccccc" />
    <path
       sodipodi:nodetypes="cccccccccccccccc"
       inkscape:connector-curvature="0"
       id="rect3721-7-2-5-2-4-3"
       d="m 403.19962,393.8375 3.2004,3.175 h 38.1 m -1e-5,14.2875 h -60.325 l -3.175,-2.38125 3.175,-3.175 -3.175,-3.175 3.175,-3.175 -3.175,-3.175 3.175,-2.38125 m 41.2628,11.93688 v -3.15659 H 409.5942 v 3.15659 z"
       style="fill:none;stroke:#000000;stroke-width:0.254;stroke-miterlimit:4;stroke-dasharray:none;stroke-opacity:1" />
    <path
       style="fill:none;stroke:#000000;stroke-width:0.254;stroke-miterlimit:4;stroke-dasharray:none;stroke-opacity:1"
       d="m 339.70684,238.26289 3.19317,-3.17507 h 38.1 m 0,-14.28782 -60.30551,0.0569 -3.11869,2.31765 3.11869,3.15666 -3.11869,3.15665 3.11869,3.15665 -3.11869,3.15665 3.11869,2.46173 m 41.24341,-11.93168 v 3.15665 H 346.0943 v -3.15665 z"
       id="rect3721-1-7-7"
       inkscape:connector-curvature="0"
       sodipodi:nodetypes="cccccccccccccccc" />
    <path
       sodipodi:nodetypes="cccccccccccccccc"
       inkscape:connector-curvature="0"
       id="rect3721-7-7-0-6"
       d="m 358.80041,235.08782 -3.2004,3.17507 h -38.1 l 1e-5,14.28779 h 60.325 l 3.175,-2.3813 -3.175,-3.17506 3.175,-3.17506 -3.175,-3.17507 3.175,-3.17507 -3.175,-2.3813 m -41.2628,11.93714 v -3.15666 h 15.84361 v 3.15666 z"
       style="fill:none;stroke:#000000;stroke-width:0.254;stroke-miterlimit:4;stroke-dasharray:none;stroke-opacity:1" />
    <path
       sodipodi:nodetypes="ccccccccccccccccc"
       inkscape:connector-curvature="0"
       id="rect3721-73-4-0-8"
       d="m 339.70684,270.01357 3.19317,-3.17507 h 38.1 m 0,-14.28781 -3.175,-1e-5 m -57.15,0 -3.0992,2.37457 3.11868,3.15664 -3.11868,3.15665 3.11868,3.15666 -3.11868,3.15665 3.11868,2.46172 m 41.24342,-11.93168 v 3.15665 H 346.0943 v -3.15665 z"
       style="fill:none;stroke:#000000;stroke-width:0.254;stroke-miterlimit:4;stroke-dasharray:none;stroke-opacity:1" />
    <path
       sodipodi:nodetypes="ccccccccccccccccc"
       inkscape:connector-curvature="0"
       id="rect3721-73-9-8-5-1-3"
       d="m 339.70684,301.76426 3.19317,-3.17507 h 38.1 m 0,-14.28781 h -3.175 m -57.15,0 -3.0992,2.37455 3.11868,3.15665 -3.11868,3.15666 3.11868,3.15665 -3.11868,3.15664 3.11868,2.46173 m 41.24342,-11.93168 v 3.15665 H 346.0943 v -3.15665 z"
       style="fill:none;stroke:#000000;stroke-width:0.254;stroke-miterlimit:4;stroke-dasharray:none;stroke-opacity:1" />
    <path
       style="fill:none;stroke:#000000;stroke-width:0.254;stroke-miterlimit:4;stroke-dasharray:none;stroke-opacity:1"
       d="m 358.8004,266.83849 -3.2004,3.17507 h -38.1 l 10e-6,14.28781 h 60.325 l 3.175,-2.3813 -3.175,-3.17507 3.175,-3.17507 -3.175,-3.17507 3.175,-3.17507 -3.175,-2.3813 m -41.2628,11.93715 v -3.15666 h 15.84361 v 3.15666 z"
       id="rect3721-7-2-6-0-8"
       inkscape:connector-curvature="0"
       sodipodi:nodetypes="cccccccccccccccc" />
    <path
       sodipodi:nodetypes="cccccccccccccccc"
       inkscape:connector-curvature="0"
       id="rect3721-7-2-3-7-3-6"
       d="m 358.8004,298.58919 -3.2004,3.17507 h -38.1 l 10e-6,14.2878 h 60.325 l 3.175,-2.3813 -3.175,-3.17507 3.175,-3.17506 -3.175,-3.17507 3.175,-3.17507 -3.175,-2.3813 m -41.2628,11.93714 v -3.15666 h 15.84361 v 3.15665 z"
       style="fill:none;stroke:#000000;stroke-width:0.254;stroke-miterlimit:4;stroke-dasharray:none;stroke-opacity:1" />
    <path
       style="fill:none;stroke:#000000;stroke-width:0.254;stroke-miterlimit:4;stroke-dasharray:none;stroke-opacity:1"
       d="m 339.70684,333.51493 3.19317,-3.17507 h 38.1 m 0,-14.2878 h -3.175 m -57.15,0 -3.0992,2.37455 3.11868,3.15665 -3.11868,3.15665 3.11868,3.15665 -3.11868,3.15666 3.11868,2.46172 m 41.24342,-11.93169 v 3.15666 H 346.0943 v -3.15666 z"
       id="rect3721-73-9-56-0-1"
       inkscape:connector-curvature="0"
       sodipodi:nodetypes="ccccccccccccccccc" />
    <path
       style="fill:none;stroke:#000000;stroke-width:0.254;stroke-miterlimit:4;stroke-dasharray:none;stroke-opacity:1"
       d="m 339.70684,365.26562 3.19317,-3.17507 h 38.1 m 0,-14.28781 h -3.175 m -57.15,0 -3.0992,2.37455 3.11868,3.15665 -3.11868,3.15666 3.11868,3.15664 -3.11868,3.15665 3.11868,2.46173 m 41.24342,-11.93168 v 3.15665 H 346.0943 v -3.15665 z"
       id="rect3721-73-9-8-2-3-0-9"
       inkscape:connector-curvature="0"
       sodipodi:nodetypes="ccccccccccccccccc" />
    <path
       sodipodi:nodetypes="cccccccccccccccc"
       inkscape:connector-curvature="0"
       id="rect3721-7-2-7-2-3-6"
       d="m 358.8004,330.33986 -3.2004,3.17507 h -38.1 l 10e-6,14.28781 h 60.325 l 3.175,-2.3813 -3.175,-3.17507 3.175,-3.17507 -3.175,-3.17507 3.175,-3.17507 -3.175,-2.3813 m -41.2628,11.93714 v -3.15666 h 15.84361 v 3.15666 z"
       style="fill:none;stroke:#000000;stroke-width:0.254;stroke-miterlimit:4;stroke-dasharray:none;stroke-opacity:1" />
    <path
       style="fill:none;stroke:#000000;stroke-width:0.254;stroke-miterlimit:4;stroke-dasharray:none;stroke-opacity:1"
       d="m 358.8004,362.09055 -3.2004,3.17507 h -38.1 l 10e-6,14.2878 h 60.325 l 3.175,-2.3813 -3.175,-3.17507 3.175,-3.17506 -3.175,-3.17507 3.175,-3.17507 -3.175,-2.3813 m -41.2628,11.93713 v -3.15665 h 15.84361 v 3.15665 z"
       id="rect3721-7-2-3-8-6-8-7"
       inkscape:connector-curvature="0"
       sodipodi:nodetypes="cccccccccccccccc" />
    <path
       style="fill:none;stroke:#000000;stroke-width:0.254;stroke-miterlimit:4;stroke-dasharray:none;stroke-opacity:1"
       d="m 339.70684,397.0163 3.19317,-3.17507 h 38.1 m 0,-14.28781 h -3.175 m -57.15,0 -3.0992,2.37455 3.11868,3.15666 -3.11868,3.15665 3.11868,3.15665 -3.11868,3.15666 3.11868,2.46172 m 41.24342,-11.93169 v 3.15665 H 346.0943 v -3.15665 z"
       id="rect3721-73-8-21-3-8"
       inkscape:connector-curvature="0"
       sodipodi:nodetypes="ccccccccccccccccc" />
    <path
       sodipodi:nodetypes="cccccccccccccccc"
       inkscape:connector-curvature="0"
       id="rect3721-7-2-5-4-0-7"
       d="M 358.8004,393.84123 355.6,397.0163 h -38.1 l 10e-6,14.28781 h 60.325 l 3.175,-2.3813 -3.175,-3.17507 3.175,-3.17507 -3.175,-3.17507 3.175,-3.17507 -3.175,-2.3813 m -41.2628,11.93714 v -3.15666 h 15.84361 v 3.15666 z"
       style="fill:none;stroke:#000000;stroke-width:0.254;stroke-miterlimit:4;stroke-dasharray:none;stroke-opacity:1" />
    <path
       sodipodi:nodetypes="ccccccccccccccccc"
       inkscape:connector-curvature="0"
       id="rect3721-73-9-8-2-9-5-7-3-2-4"
       d="m 441.33486,411.3 3.0992,2.3745 -3.11868,3.15659 3.11868,3.15658 -3.11868,3.1566 3.11868,3.15656 -3.11868,2.46166 h -19.01235 l -3.19317,-3.175 h -38.1 V 411.3 h 3.175 m 15.8871,5.53109 v 3.15658 h 15.84361 v -3.15658 z"
       style="fill:none;stroke:#000000;stroke-width:0.254;stroke-miterlimit:4;stroke-dasharray:none;stroke-opacity:1" />
    <path
       sodipodi:nodetypes="ccccccccccccccccc"
       inkscape:connector-curvature="0"
       id="rect3721-73-9-8-2-9-5-7-9-4-9"
       d="m 320.68486,411.31232 -3.0992,2.37455 3.11868,3.15666 -3.11868,3.15665 3.11868,3.15666 -3.11868,3.15664 3.11868,2.46171 h 19.01235 l 3.19317,-3.17505 h 38.1 m 0,-14.28782 h -3.175 m -15.8871,5.53121 v 3.15665 h -15.84361 v -3.15665 z"
       style="fill:none;stroke:#000000;stroke-width:0.254;stroke-miterlimit:4;stroke-dasharray:none;stroke-opacity:1" />
    <rect
       style="fill:none;stroke:#000000;stroke-width:0.254;stroke-miterlimit:4;stroke-dasharray:none;stroke-opacity:1"
       id="rect1396"
       width="3.174999"
       height="3.175"
       x="463.54999"
       y="226.35625" />
    <g
       style="font-style:normal;font-weight:normal;font-size:2.82222px;line-height:1.25;font-family:sans-serif;fill:#ff0000;fill-opacity:1;stroke:none;stroke-width:0.264583"
       id="text1687"
       transform="rotate(90)"
       aria-label="McBoley Brewing">
      <path
         id="path1697"
         style="font-style:normal;font-variant:normal;font-weight:normal;font-stretch:normal;font-family:Herculanum;-inkscape-font-specification:Herculanum;text-align:center;text-anchor:middle;fill:#ff0000;fill-opacity:1;stroke-width:0.264583"
         d="m 222.21441,-454.52539 0.28504,0.30198 q 0.11289,0.12136 0.20602,0.20038 0.0931,0.0762 0.17216,0.12135 0.0818,0.0452 0.15522,0.0621 0.0734,0.0169 0.14958,0.0169 0.19756,0 0.41487,-0.10725 0.21731,-0.10724 0.41486,-0.28504 l 0.17498,-0.15805 q 0.006,0.031 0.0141,0.1016 0.0113,0.0677 0.0226,0.1524 0.0141,0.0847 0.0254,0.17216 0.0141,0.0875 0.0226,0.15522 0.008,0.079 0.0254,0.12418 0.0197,0.0452 0.0536,0.0452 0.0169,0 0.0452,-0.008 0.0282,-0.0113 0.0536,-0.0254 0.0282,-0.0141 0.048,-0.0282 0.0197,-0.0169 0.0197,-0.0282 0,-0.031 -0.0254,-0.079 -0.0226,-0.048 -0.0536,-0.11289 -0.0282,-0.0649 -0.0536,-0.14675 -0.0226,-0.0847 -0.0226,-0.18627 0,-0.15522 0.0113,-0.28222 0.0113,-0.127 0.0254,-0.22014 0.0169,-0.0931 0.0282,-0.1524 0.0113,-0.0621 0.0113,-0.0847 0,-0.0169 -0.0169,-0.0282 -0.0141,-0.0141 -0.0367,-0.0226 -0.0198,-0.0113 -0.0423,-0.0141 -0.0198,-0.006 -0.031,-0.006 -0.0169,0 -0.0339,0.0282 -0.0141,0.0282 -0.031,0.0988 -0.0508,0.20885 -0.1778,0.38665 -0.12418,0.1778 -0.27658,0.30762 -0.1524,0.127 -0.31044,0.20038 -0.15523,0.0734 -0.27094,0.0734 -0.0621,0 -0.14111,-0.0395 -0.0762,-0.0395 -0.16369,-0.10442 -0.0847,-0.0677 -0.17215,-0.14958 -0.0875,-0.0847 -0.16934,-0.17215 -0.079,-0.0903 -0.14957,-0.17498 -0.0677,-0.0875 -0.11572,-0.15522 -0.11006,-0.16087 -0.18344,-0.25965 -0.0706,-0.0988 -0.11571,-0.14957 -0.0423,-0.0536 -0.0677,-0.0706 -0.0254,-0.0169 -0.0452,-0.0169 -0.0198,0 -0.048,0.003 -0.0254,0.003 -0.0508,0.008 -0.0254,0.006 -0.0452,0.0141 -0.0169,0.008 -0.0169,0.0226 0,0.0367 0.0452,0.0931 0.048,0.0536 0.10442,0.13264 0.0593,0.0762 0.10442,0.18345 0.048,0.10724 0.048,0.25117 0,0.0706 -0.0282,0.18345 -0.0254,0.11007 -0.0677,0.22578 -0.0423,0.11571 -0.0931,0.22013 -0.0508,0.1016 -0.0959,0.1524 -0.0395,0.0452 -0.0508,0.0677 -0.0113,0.0226 -0.0113,0.0395 0,0.0113 0.0113,0.0282 0.0141,0.0169 0.0339,0.031 0.0198,0.0169 0.0423,0.0282 0.0226,0.0113 0.0423,0.0113 0.0395,0 0.0621,-0.003 0.0254,-0.003 0.0395,-0.0113 0.0141,-0.006 0.0198,-0.0197 0.006,-0.0141 0.0113,-0.0367 0.0226,-0.11007 0.0988,-0.34714 0.079,-0.23706 0.17216,-0.5588 z" />
      <path
         id="path1699"
         style="font-style:normal;font-variant:normal;font-weight:normal;font-stretch:normal;font-family:Herculanum;-inkscape-font-specification:Herculanum;text-align:center;text-anchor:middle;fill:#ff0000;fill-opacity:1;stroke-width:0.264583"
         d="m 225.05912,-454.26574 q 0,0.19473 0.0621,0.32738 0.0649,0.12982 0.15804,0.21166 0.0931,0.079 0.19756,0.11289 0.10442,0.0339 0.18344,0.0339 0.0565,0 0.11854,-0.008 0.0621,-0.006 0.11853,-0.0169 0.0564,-0.0113 0.10442,-0.0254 0.048,-0.0169 0.0762,-0.0339 0.048,-0.0254 0.0875,-0.0593 0.0423,-0.0367 0.0734,-0.0705 0.0339,-0.0339 0.0508,-0.0593 0.0197,-0.0282 0.0197,-0.0395 0,-0.0254 -0.0169,-0.0423 -0.0141,-0.0169 -0.0423,-0.0169 -0.0254,0 -0.0706,0.0367 -0.0452,0.0339 -0.11006,0.079 -0.0621,0.0423 -0.14676,0.079 -0.0818,0.0339 -0.18344,0.0339 -0.11007,0 -0.2032,-0.0593 -0.0903,-0.0621 -0.15523,-0.1524 -0.0649,-0.0903 -0.1016,-0.19191 -0.0339,-0.10443 -0.0339,-0.18627 0,-0.0423 0.008,-0.11571 0.0113,-0.0762 0.0367,-0.16369 0.0254,-0.0875 0.0706,-0.1778 0.0452,-0.0903 0.11571,-0.16087 0.0734,-0.0734 0.17215,-0.11853 0.1016,-0.048 0.23707,-0.048 0.0452,0 0.0762,0.0198 0.031,0.0197 0.0508,0.0451 0.0226,0.0226 0.0367,0.0423 0.0169,0.0197 0.0339,0.0197 0.0169,0 0.0423,-0.0141 0.0282,-0.0169 0.0508,-0.0395 0.0254,-0.0226 0.0423,-0.0452 0.0169,-0.0254 0.0169,-0.0423 0,-0.0423 -0.0649,-0.0875 -0.0649,-0.0451 -0.18345,-0.0451 -0.079,0 -0.18062,0.0169 -0.0988,0.0141 -0.2032,0.0564 -0.10442,0.0395 -0.2032,0.11007 -0.096,0.0677 -0.17216,0.1778 -0.0762,0.10725 -0.12417,0.25965 -0.0452,0.1524 -0.0452,0.35842 z" />
      <path
         id="path1701"
         style="font-style:normal;font-variant:normal;font-weight:normal;font-stretch:normal;font-family:Herculanum;-inkscape-font-specification:Herculanum;text-align:center;text-anchor:middle;fill:#ff0000;fill-opacity:1;stroke-width:0.264583"
         d="m 226.99728,-454.01456 q 0,-0.20038 0.006,-0.2794 0.008,-0.0818 0.0282,-0.10443 0.0141,-0.0141 0.0395,-0.0282 0.0254,-0.0141 0.0508,-0.0226 0.0593,0.0226 0.12418,0.0649 0.0677,0.0423 0.12417,0.096 0.0565,0.0536 0.0931,0.11007 0.0395,0.0564 0.0395,0.10724 0,0.0762 -0.0536,0.12982 -0.0508,0.0536 -0.12418,0.0903 -0.0706,0.0339 -0.14958,0.0508 -0.0762,0.0141 -0.127,0.0141 -0.0169,0 -0.0282,-0.006 -0.008,-0.006 -0.0141,-0.0282 -0.006,-0.0226 -0.008,-0.0677 0,-0.048 0,-0.127 z m 0.0282,-0.6096 v -0.44309 q 0,-0.0621 0.0339,-0.0847 0.0367,-0.0226 0.0847,-0.0226 0.0649,0 0.11571,0.0198 0.0508,0.0197 0.0847,0.0508 0.0367,0.0282 0.0536,0.0677 0.0197,0.0367 0.0197,0.0734 0,0.0536 -0.0395,0.12135 -0.0395,0.0649 -0.0931,0.12418 -0.0508,0.0565 -0.10442,0.096 -0.0536,0.0395 -0.0847,0.0395 -0.0198,0 -0.0395,-0.0141 -0.0169,-0.0141 -0.031,-0.0282 z m -0.17497,0.1524 q 0,0.10442 -0.006,0.21448 -0.003,0.11007 -0.0113,0.20885 -0.008,0.096 -0.0169,0.17498 -0.008,0.0762 -0.0169,0.11571 -0.006,0.0367 -0.0367,0.0649 -0.0282,0.0254 -0.0282,0.048 0,0.031 0.0423,0.0452 0.0423,0.0113 0.17215,0.0113 0.0169,0 0.079,-0.0141 0.0621,-0.0169 0.14393,-0.0452 0.0847,-0.031 0.1778,-0.0734 0.0959,-0.0452 0.17215,-0.1016 0.079,-0.0593 0.12983,-0.12983 0.0536,-0.0734 0.0536,-0.15804 0,-0.0762 -0.048,-0.14958 -0.048,-0.0762 -0.11571,-0.13829 -0.0677,-0.0649 -0.14393,-0.11006 -0.0734,-0.048 -0.127,-0.0649 0.11571,-0.0649 0.18344,-0.11289 0.0677,-0.0508 0.10442,-0.0988 0.0395,-0.048 0.0508,-0.1016 0.0113,-0.0536 0.0113,-0.12982 0,-0.1524 -0.11853,-0.21167 -0.11571,-0.0593 -0.31891,-0.0593 -0.048,0 -0.0677,0.006 -0.0198,0.003 -0.0367,0.0113 -0.13547,0.0677 -0.21167,0.10724 -0.0762,0.0395 -0.11289,0.0649 -0.0339,0.0226 -0.0423,0.0339 -0.008,0.0113 -0.008,0.0226 0,0.0254 0.0198,0.0395 0.0226,0.0113 0.0621,0.0339 0.0198,0.0113 0.0311,0.0282 0.0141,0.0169 0.0197,0.0677 0.008,0.048 0.0113,0.14111 0.003,0.0931 0.003,0.25965 z" />
      <path
         id="path1703"
         style="font-style:normal;font-variant:normal;font-weight:normal;font-stretch:normal;font-family:Herculanum;-inkscape-font-specification:Herculanum;text-align:center;text-anchor:middle;fill:#ff0000;fill-opacity:1;stroke-width:0.264583"
         d="m 228.4087,-454.40403 q 0,-0.12136 0.031,-0.23142 0.031,-0.11007 0.0903,-0.19191 0.0593,-0.0818 0.14675,-0.12983 0.0875,-0.0508 0.19756,-0.0508 0.0818,0 0.15804,0.0339 0.0762,0.031 0.13547,0.10442 0.0593,0.0706 0.096,0.18909 0.0367,0.11853 0.0367,0.29351 0,0.16934 -0.0452,0.2794 -0.0423,0.10725 -0.11007,0.16934 -0.0649,0.0621 -0.13829,0.0847 -0.0734,0.0226 -0.13264,0.0226 -0.14111,0 -0.23143,-0.0706 -0.0903,-0.0706 -0.14393,-0.16368 -0.0508,-0.096 -0.0705,-0.19192 -0.0198,-0.096 -0.0198,-0.14675 z m -0.2032,0.0451 q 0,0.17498 0.0536,0.30763 0.0536,0.13264 0.13829,0.22295 0.0847,0.0875 0.19191,0.13265 0.10725,0.0451 0.21167,0.0451 0.13264,0 0.254,-0.0508 0.12418,-0.0508 0.22013,-0.14675 0.096,-0.0988 0.1524,-0.24271 0.0593,-0.14394 0.0593,-0.3302 0,-0.19474 -0.0452,-0.33585 -0.0452,-0.14393 -0.12135,-0.23424 -0.0762,-0.0931 -0.1778,-0.13547 -0.1016,-0.0452 -0.21449,-0.0452 -0.19473,0 -0.33302,0.0762 -0.13547,0.0734 -0.22296,0.19192 -0.0875,0.11853 -0.127,0.26246 -0.0395,0.14394 -0.0395,0.28222 z" />
      <path
         id="path1705"
         style="font-style:normal;font-variant:normal;font-weight:normal;font-stretch:normal;font-family:Herculanum;-inkscape-font-specification:Herculanum;text-align:center;text-anchor:middle;fill:#ff0000;fill-opacity:1;stroke-width:0.264583"
         d="m 230.91161,-453.7775 -0.51082,0.0198 q -0.0197,0 -0.0367,0.006 -0.0141,0.006 -0.0282,0.006 -0.0339,0 -0.0339,-0.0226 0,-0.0254 0.006,-0.0847 0.006,-0.0593 0.0113,-0.13829 0.006,-0.079 0.0113,-0.16933 0.006,-0.0931 0.006,-0.18062 0,-0.0931 -0.003,-0.16087 -0.003,-0.0705 -0.003,-0.14958 0,-0.11853 0.008,-0.24271 0.008,-0.12418 0.008,-0.25118 0,-0.0395 0.0113,-0.0762 0.0113,-0.0367 0.0113,-0.0621 0,-0.031 -0.0367,-0.048 -0.0367,-0.0198 -0.0621,-0.0198 -0.0141,0 -0.0508,0.0198 -0.0339,0.0197 -0.0706,0.048 -0.0339,0.0254 -0.0621,0.0536 -0.0254,0.0282 -0.0254,0.0423 0,0.0169 0.0141,0.0452 0.0141,0.0254 0.0282,0.0959 0.0169,0.0677 0.031,0.19191 0.0141,0.12136 0.0141,0.32738 v 0.39793 q 0,0.0875 -0.003,0.1524 0,0.0649 -0.003,0.11007 0,0.0536 -0.0282,0.0847 -0.0282,0.0282 -0.0282,0.0508 0,0.008 0.008,0.0339 0.0113,0.0226 0.0282,0.048 0.0169,0.0226 0.0339,0.0423 0.0198,0.0197 0.0367,0.0197 0.0508,0 0.0875,-0.0197 0.0113,-0.006 0.0254,-0.008 0.0169,-0.006 0.0508,-0.006 0.0339,-0.003 0.0903,-0.003 0.0593,-0.003 0.15522,-0.003 0.0903,0 0.14676,0.003 0.0593,0 0.0931,0.003 0.0339,0 0.048,0.003 0.0141,0 0.0197,0.003 0.0423,0.0141 0.0621,0.0226 0.0226,0.006 0.048,0.006 0.0169,0 0.031,-0.0282 0.0169,-0.031 0.0282,-0.0649 0.0141,-0.0367 0.0197,-0.0677 0.008,-0.0339 0.008,-0.0423 0,-0.0367 -0.048,-0.0367 -0.031,0 -0.0705,0.0254 -0.0395,0.0226 -0.079,0.0254 z" />
      <path
         id="path1707"
         style="font-style:normal;font-variant:normal;font-weight:normal;font-stretch:normal;font-family:Herculanum;-inkscape-font-specification:Herculanum;text-align:center;text-anchor:middle;fill:#ff0000;fill-opacity:1;stroke-width:0.264583"
         d="m 232.23109,-454.49152 h -0.381 q -0.0423,0 -0.0734,0.0141 -0.031,0.0113 -0.0536,0.031 0.0113,-0.21167 0.048,-0.34714 0.0367,-0.13546 0.0875,-0.21166 0.0536,-0.079 0.11571,-0.10725 0.0649,-0.0282 0.13264,-0.0282 h 0.16652 q 0.0536,0 0.0536,-0.0621 0,-0.048 -0.0423,-0.0649 -0.0423,-0.0198 -0.16086,-0.0198 -0.11854,0 -0.23142,0.0508 -0.11007,0.048 -0.19474,0.16651 -0.0847,0.11572 -0.13829,0.30763 -0.0508,0.18909 -0.0508,0.47131 0,0.079 0.006,0.16651 0.006,0.0875 0.0282,0.17498 0.0226,0.0847 0.0649,0.16369 0.0452,0.0762 0.12136,0.13546 0.0762,0.0593 0.18909,0.0931 0.11288,0.0367 0.27375,0.0367 0.10725,0 0.14958,-0.0226 0.0423,-0.0226 0.0423,-0.0452 0,-0.0367 -0.0226,-0.048 -0.0197,-0.0113 -0.0818,-0.0113 -0.29069,0 -0.42333,-0.16933 -0.13265,-0.17215 -0.13265,-0.51082 0.0847,-0.003 0.19191,-0.003 0.11007,-0.003 0.23707,-0.0141 0.0141,0 0.0339,-0.0141 0.0226,-0.0141 0.0452,-0.0339 0.0226,-0.0198 0.0367,-0.0367 0.0169,-0.0198 0.0169,-0.0282 0,-0.0339 -0.0536,-0.0339 z" />
      <path
         id="path1709"
         style="font-style:normal;font-variant:normal;font-weight:normal;font-stretch:normal;font-family:Herculanum;-inkscape-font-specification:Herculanum;text-align:center;text-anchor:middle;fill:#ff0000;fill-opacity:1;stroke-width:0.264583"
         d="m 233.17221,-453.35416 q 0.0254,0 0.0536,-0.0452 0.0282,-0.0452 0.0593,-0.11571 0.031,-0.0677 0.0621,-0.1524 0.0339,-0.0875 0.0621,-0.16651 0.031,-0.079 0.0536,-0.14111 0.0254,-0.0649 0.0423,-0.0931 l 0.48542,-0.86077 q 0.0282,-0.048 0.0508,-0.0762 0.0226,-0.0282 0.0367,-0.0452 0.0169,-0.0198 0.0254,-0.031 0.008,-0.0113 0.008,-0.0226 0,-0.0226 -0.0254,-0.0423 -0.0254,-0.0197 -0.0593,-0.0339 -0.0339,-0.0141 -0.0706,-0.0226 -0.0339,-0.0113 -0.0536,-0.0113 -0.031,0 -0.0452,0.0169 -0.0113,0.0141 -0.0113,0.0706 0,0.0564 -0.0423,0.15804 -0.0423,0.0988 -0.10724,0.22296 -0.0649,0.12418 -0.14111,0.26529 -0.0762,0.13829 -0.14394,0.27375 -0.0339,-0.0847 -0.11289,-0.2032 -0.079,-0.12135 -0.16651,-0.24835 -0.0875,-0.127 -0.16651,-0.24553 -0.0762,-0.12136 -0.10724,-0.2032 -0.0113,-0.031 -0.0169,-0.0593 -0.003,-0.0311 -0.008,-0.0536 -0.003,-0.0254 -0.0113,-0.0395 -0.008,-0.0169 -0.0282,-0.0169 -0.0198,0 -0.0564,0.0198 -0.0367,0.0198 -0.0706,0.048 -0.0339,0.0254 -0.0593,0.0564 -0.0254,0.0282 -0.0254,0.048 0,0.0254 0.0226,0.0621 0.0226,0.0339 0.0649,0.0875 0.0423,0.0508 0.10442,0.12982 0.0649,0.0762 0.14676,0.18909 0.12135,0.16933 0.19191,0.27375 0.0734,0.10442 0.11006,0.16934 0.0367,0.0621 0.048,0.0988 0.0113,0.0339 0.0113,0.0677 0,0.0818 -0.0254,0.16369 -0.0254,0.0818 -0.0621,0.14957 -0.0367,0.0677 -0.0818,0.11289 -0.0423,0.0452 -0.0819,0.0536 -0.0423,0.008 -0.0536,0.0198 -0.008,0.0141 -0.008,0.031 0,0.0141 0.0226,0.0367 0.0226,0.0226 0.0536,0.0452 0.0339,0.0254 0.0677,0.0423 0.0367,0.0169 0.0593,0.0169 z" />
      <path
         id="path1711"
         style="font-style:normal;font-variant:normal;font-weight:normal;font-stretch:normal;font-family:Herculanum;-inkscape-font-specification:Herculanum;text-align:center;text-anchor:middle;fill:#ff0000;fill-opacity:1;stroke-width:0.264583"
         d="m 222.19068,-450.42451 q 0,-0.20038 0.006,-0.2794 0.008,-0.0818 0.0282,-0.10442 0.0141,-0.0141 0.0395,-0.0282 0.0254,-0.0141 0.0508,-0.0226 0.0593,0.0226 0.12418,0.0649 0.0677,0.0423 0.12418,0.096 0.0564,0.0536 0.0931,0.11007 0.0395,0.0564 0.0395,0.10725 0,0.0762 -0.0536,0.12982 -0.0508,0.0536 -0.12418,0.0903 -0.0705,0.0339 -0.14958,0.0508 -0.0762,0.0141 -0.127,0.0141 -0.0169,0 -0.0282,-0.006 -0.008,-0.006 -0.0141,-0.0282 -0.006,-0.0226 -0.008,-0.0677 0,-0.048 0,-0.127 z m 0.0282,-0.6096 v -0.44309 q 0,-0.0621 0.0339,-0.0847 0.0367,-0.0226 0.0847,-0.0226 0.0649,0 0.11571,0.0197 0.0508,0.0198 0.0847,0.0508 0.0367,0.0282 0.0536,0.0677 0.0197,0.0367 0.0197,0.0734 0,0.0536 -0.0395,0.12136 -0.0395,0.0649 -0.0931,0.12418 -0.0508,0.0564 -0.10442,0.0959 -0.0536,0.0395 -0.0847,0.0395 -0.0197,0 -0.0395,-0.0141 -0.0169,-0.0141 -0.031,-0.0282 z m -0.17498,0.1524 q 0,0.10442 -0.006,0.21449 -0.003,0.11007 -0.0113,0.20884 -0.008,0.096 -0.0169,0.17498 -0.008,0.0762 -0.0169,0.11571 -0.006,0.0367 -0.0367,0.0649 -0.0282,0.0254 -0.0282,0.048 0,0.031 0.0423,0.0452 0.0423,0.0113 0.17216,0.0113 0.0169,0 0.079,-0.0141 0.0621,-0.0169 0.14393,-0.0451 0.0847,-0.031 0.1778,-0.0734 0.096,-0.0452 0.17216,-0.1016 0.079,-0.0593 0.12982,-0.12982 0.0536,-0.0734 0.0536,-0.15805 0,-0.0762 -0.048,-0.14957 -0.048,-0.0762 -0.11571,-0.13829 -0.0677,-0.0649 -0.14393,-0.11007 -0.0734,-0.048 -0.127,-0.0649 0.11571,-0.0649 0.18344,-0.11289 0.0677,-0.0508 0.10443,-0.0988 0.0395,-0.048 0.0508,-0.1016 0.0113,-0.0536 0.0113,-0.12982 0,-0.1524 -0.11853,-0.21167 -0.11571,-0.0593 -0.31891,-0.0593 -0.048,0 -0.0677,0.006 -0.0198,0.003 -0.0367,0.0113 -0.13547,0.0677 -0.21167,0.10725 -0.0762,0.0395 -0.11289,0.0649 -0.0339,0.0226 -0.0423,0.0339 -0.008,0.0113 -0.008,0.0226 0,0.0254 0.0198,0.0395 0.0226,0.0113 0.0621,0.0339 0.0198,0.0113 0.031,0.0282 0.0141,0.0169 0.0198,0.0677 0.008,0.048 0.0113,0.14112 0.003,0.0931 0.003,0.25964 z" />
      <path
         id="path1713"
         style="font-style:normal;font-variant:normal;font-weight:normal;font-stretch:normal;font-family:Herculanum;-inkscape-font-specification:Herculanum;text-align:center;text-anchor:middle;fill:#ff0000;fill-opacity:1;stroke-width:0.264583"
         d="m 223.73757,-451.01718 q 0,-0.0339 0,-0.0931 0.003,-0.0621 0.008,-0.13264 0.006,-0.0734 0.0141,-0.14676 0.008,-0.0762 0.0226,-0.14111 0.003,-0.0141 0.0282,-0.0254 0.0254,-0.0113 0.0564,-0.0198 0.0339,-0.008 0.0649,-0.0113 0.031,-0.006 0.0423,-0.006 0.0113,0 0.031,0.006 0.0226,0.006 0.0452,0.0169 0.0254,0.008 0.0452,0.0197 0.0198,0.0113 0.0254,0.0198 0.0169,0.0226 0.0282,0.048 0.0141,0.0254 0.0141,0.0649 0,0.096 -0.031,0.18909 -0.0169,0.0423 -0.0423,0.0734 -0.0254,0.0282 -0.0565,0.0508 -0.031,0.0198 -0.0621,0.0339 -0.0282,0.0141 -0.0536,0.0254 -0.0734,0.0339 -0.10442,0.048 -0.031,0.0141 -0.0452,0.0141 -0.0113,0 -0.0226,-0.006 -0.008,-0.006 -0.008,-0.0282 z m 0.031,-0.70837 -0.24553,0.0649 q -0.0564,0.0141 -0.0564,0.0508 0,0.0508 0.0593,0.0847 0.0113,0.008 0.0169,0.0649 0.008,0.0536 0.0113,0.127 0.006,0.0706 0.006,0.14394 0.003,0.0734 0.003,0.12135 0,0.10725 -0.003,0.23707 -0.003,0.127 -0.008,0.24271 -0.003,0.11571 -0.006,0.2032 -0.003,0.0847 -0.003,0.10725 -0.003,0.0536 -0.0141,0.0903 -0.008,0.0367 -0.0198,0.0621 -0.008,0.0226 -0.0169,0.0367 -0.006,0.0141 -0.006,0.0282 0,0.0169 0.0226,0.0339 0.0226,0.0141 0.0536,0.0254 0.0339,0.008 0.0677,0.0141 0.0339,0.008 0.0536,0.008 0.0395,0 0.0536,-0.0113 0.0169,-0.0113 0.0169,-0.0395 0,-0.0226 -0.006,-0.0508 -0.003,-0.0282 -0.008,-0.0734 -0.003,-0.048 -0.008,-0.12135 -0.003,-0.0734 -0.003,-0.18909 v -0.0762 q 0,-0.0677 0.003,-0.13547 0.003,-0.0706 0.008,-0.127 0.0847,0.0169 0.21449,0.0903 0.13265,0.0734 0.28222,0.17216 0.14958,0.0988 0.30198,0.21167 0.15522,0.11288 0.28505,0.20602 0.13264,0.0931 0.2286,0.15522 0.096,0.0621 0.127,0.0621 0.0169,0 0.048,-0.0226 0.0339,-0.0197 0.0649,-0.048 0.0339,-0.0282 0.0565,-0.0564 0.0254,-0.0282 0.0254,-0.0423 0,-0.0198 -0.0113,-0.031 -0.008,-0.0113 -0.0198,-0.0113 -0.11571,0 -0.23142,-0.0649 -0.0451,-0.0282 -0.11571,-0.0705 -0.0706,-0.0423 -0.15522,-0.096 -0.0819,-0.0536 -0.17498,-0.11007 -0.0903,-0.0593 -0.18062,-0.11853 -0.12136,-0.0818 -0.22578,-0.14958 -0.10442,-0.0677 -0.18062,-0.11571 -0.0762,-0.048 -0.0988,-0.0593 -0.0226,-0.0113 -0.0226,-0.0197 0,-0.008 0.0141,-0.0141 0.0141,-0.008 0.0819,-0.031 0.0508,-0.0169 0.11007,-0.0451 0.0593,-0.031 0.11006,-0.079 0.0536,-0.048 0.0875,-0.11854 0.0339,-0.0734 0.0339,-0.17498 0,-0.0649 -0.0395,-0.127 -0.0395,-0.0649 -0.10725,-0.11571 -0.0677,-0.0508 -0.16086,-0.0818 -0.0903,-0.031 -0.19756,-0.031 -0.0452,0 -0.0706,0.006 -0.0254,0.003 -0.0508,0.008 z" />
      <path
         id="path1715"
         style="font-style:normal;font-variant:normal;font-weight:normal;font-stretch:normal;font-family:Herculanum;-inkscape-font-specification:Herculanum;text-align:center;text-anchor:middle;fill:#ff0000;fill-opacity:1;stroke-width:0.264583"
         d="m 226.16468,-450.90147 h -0.381 q -0.0423,0 -0.0734,0.0141 -0.031,0.0113 -0.0536,0.031 0.0113,-0.21167 0.048,-0.34713 0.0367,-0.13547 0.0875,-0.21167 0.0536,-0.079 0.11571,-0.10724 0.0649,-0.0282 0.13264,-0.0282 h 0.16652 q 0.0536,0 0.0536,-0.0621 0,-0.048 -0.0423,-0.0649 -0.0423,-0.0198 -0.16086,-0.0198 -0.11854,0 -0.23142,0.0508 -0.11007,0.048 -0.19474,0.16651 -0.0847,0.11571 -0.13829,0.30762 -0.0508,0.18909 -0.0508,0.47131 0,0.079 0.006,0.16651 0.006,0.0875 0.0282,0.17498 0.0226,0.0847 0.0649,0.16369 0.0452,0.0762 0.12136,0.13547 0.0762,0.0593 0.18909,0.0931 0.11288,0.0367 0.27375,0.0367 0.10725,0 0.14958,-0.0226 0.0423,-0.0226 0.0423,-0.0452 0,-0.0367 -0.0226,-0.048 -0.0197,-0.0113 -0.0818,-0.0113 -0.29069,0 -0.42333,-0.16933 -0.13265,-0.17216 -0.13265,-0.51083 0.0847,-0.003 0.19191,-0.003 0.11007,-0.003 0.23707,-0.0141 0.0141,0 0.0339,-0.0141 0.0226,-0.0141 0.0452,-0.0339 0.0226,-0.0197 0.0367,-0.0367 0.0169,-0.0197 0.0169,-0.0282 0,-0.0339 -0.0536,-0.0339 z" />
      <path
         id="path1717"
         style="font-style:normal;font-variant:normal;font-weight:normal;font-stretch:normal;font-family:Herculanum;-inkscape-font-specification:Herculanum;text-align:center;text-anchor:middle;fill:#ff0000;fill-opacity:1;stroke-width:0.264583"
         d="m 226.53325,-451.55058 q 0,0.0367 0.0367,0.0847 0.0367,0.0452 0.0847,0.14676 0.16087,0.33866 0.25682,0.56726 0.0988,0.2286 0.14958,0.37254 0.0536,0.14393 0.0706,0.22013 0.0169,0.0734 0.0169,0.10724 0,0.048 0.0113,0.0593 0.0141,0.0141 0.0423,0.0141 0.0169,0 0.0452,-0.006 0.0282,-0.006 0.0536,-0.0141 0.0282,-0.0113 0.048,-0.0226 0.0197,-0.0141 0.0226,-0.0282 0.003,-0.031 0.0282,-0.0847 0.0282,-0.0536 0.0706,-0.12136 0.0423,-0.0677 0.0931,-0.14393 0.0536,-0.0762 0.10724,-0.14958 0.0564,-0.0762 0.11007,-0.14393 0.0536,-0.0677 0.096,-0.11853 0.048,0.0451 0.0988,0.14393 0.0508,0.0959 0.096,0.20884 0.048,0.11289 0.0818,0.22014 0.0367,0.10724 0.0536,0.17215 0.006,0.0226 0.0254,0.0367 0.0198,0.0141 0.0423,0.0226 0.0254,0.006 0.048,0.008 0.0254,0 0.0395,0 0.0367,0 0.0451,-0.0649 0.006,-0.0339 0.0452,-0.12982 0.0423,-0.096 0.10442,-0.2286 0.0649,-0.13264 0.14676,-0.28504 0.0847,-0.15522 0.17497,-0.30762 0.0706,-0.12418 0.11854,-0.20038 0.0508,-0.079 0.0818,-0.12418 0.0339,-0.048 0.048,-0.0734 0.0141,-0.0254 0.0141,-0.0452 0,-0.0113 -0.0226,-0.031 -0.0226,-0.0197 -0.0536,-0.0395 -0.0282,-0.0197 -0.0593,-0.0339 -0.0282,-0.0141 -0.0423,-0.0141 -0.0254,0 -0.0395,0.0169 -0.0141,0.0169 -0.0141,0.0677 0,0.0254 -0.0367,0.10724 -0.0339,0.079 -0.0875,0.18909 -0.0536,0.11007 -0.12136,0.23707 -0.0649,0.127 -0.127,0.24836 -0.0621,0.12135 -0.11571,0.22577 -0.0508,0.1016 -0.0762,0.16369 -0.18626,-0.35842 -0.26246,-0.56726 -0.0762,-0.21167 -0.0762,-0.25965 0,-0.008 -0.0141,-0.0169 -0.0113,-0.0113 -0.0282,-0.0169 -0.0169,-0.006 -0.0367,-0.008 -0.0169,-0.006 -0.0254,-0.006 -0.0197,0 -0.0339,0.0141 -0.0141,0.0141 -0.0367,0.0677 -0.0169,0.0452 -0.0564,0.11571 -0.0395,0.0677 -0.0903,0.14958 -0.048,0.079 -0.10442,0.16369 -0.0564,0.0847 -0.10724,0.16086 -0.0508,0.0762 -0.0931,0.13829 -0.0395,0.0593 -0.0593,0.0931 -0.031,-0.0564 -0.0819,-0.16651 -0.0508,-0.11289 -0.11006,-0.24835 -0.0564,-0.13829 -0.11572,-0.28505 -0.0593,-0.14675 -0.10724,-0.2794 -0.048,-0.13264 -0.079,-0.23424 -0.0282,-0.1016 -0.0282,-0.14393 0,-0.048 -0.0508,-0.048 -0.0169,0 -0.0536,0.0169 -0.0339,0.0169 -0.0705,0.0423 -0.0367,0.0226 -0.0649,0.048 -0.0254,0.0226 -0.0254,0.0395 z" />
      <path
         id="path1719"
         style="font-style:normal;font-variant:normal;font-weight:normal;font-stretch:normal;font-family:Herculanum;-inkscape-font-specification:Herculanum;text-align:center;text-anchor:middle;fill:#ff0000;fill-opacity:1;stroke-width:0.264583"
         d="m 229.53146,-450.87042 q 0,0.22295 0,0.381 0.003,0.15522 0.006,0.25964 0.003,0.1016 0.008,0.16087 0.008,0.0564 0.0198,0.0847 0.0113,0.0282 0.0254,0.0339 0.0169,0.008 0.0367,0.008 0.048,0 0.0677,-0.0564 0.0226,-0.0536 0.0226,-0.22296 0,-0.508 0.006,-0.79869 0.008,-0.29351 0.0198,-0.41769 0.003,-0.048 0.0141,-0.0818 0.0141,-0.0367 0.0141,-0.0706 0,-0.0169 -0.0395,-0.0395 -0.0395,-0.0254 -0.0706,-0.0254 -0.0198,0 -0.0564,0.0226 -0.0339,0.0198 -0.0677,0.048 -0.0339,0.0282 -0.0593,0.0593 -0.0254,0.031 -0.0254,0.048 0,0.0226 0.008,0.048 0.0113,0.0226 0.0395,0.0536 0.0169,0.0198 0.0198,0.048 0.003,0.0254 0.003,0.0649 0,0.0734 0.003,0.15804 0.006,0.0847 0.006,0.23425 z" />
      <path
         id="path1721"
         style="font-style:normal;font-variant:normal;font-weight:normal;font-stretch:normal;font-family:Herculanum;-inkscape-font-specification:Herculanum;text-align:center;text-anchor:middle;fill:#ff0000;fill-opacity:1;stroke-width:0.264583"
         d="m 230.52766,-451.03693 -0.0339,0.69709 q -0.006,0.0847 -0.0226,0.13829 -0.0169,0.0536 -0.0367,0.0875 -0.0169,0.0311 -0.031,0.0536 -0.0141,0.0198 -0.0141,0.0423 0,0.0395 0.0536,0.0395 0.031,0 0.0649,-0.008 0.0367,-0.008 0.10442,-0.0254 0.031,-0.008 0.0395,-0.031 0.0113,-0.0254 0.0113,-0.048 0,-0.0339 -0.003,-0.0959 -0.003,-0.0649 -0.003,-0.127 0,-0.0706 0,-0.17216 0.003,-0.10442 0.003,-0.22295 0.003,-0.11854 0.008,-0.24272 0.006,-0.127 0.0141,-0.24553 0.0423,0.048 0.12418,0.13265 0.0847,0.0847 0.18627,0.19473 0.10442,0.10724 0.22013,0.23424 0.11853,0.12418 0.2286,0.254 0.0508,0.0593 0.0762,0.11854 0.0282,0.0593 0.0423,0.10724 0.0141,0.048 0.0226,0.079 0.0113,0.031 0.0254,0.031 0.0113,0 0.0423,-0.0169 0.031,-0.0197 0.0621,-0.0452 0.0339,-0.0282 0.0593,-0.0593 0.0254,-0.0339 0.0254,-0.0621 0,-0.0903 -0.003,-0.16933 -0.003,-0.0818 -0.003,-0.1524 0,-0.23142 0.0141,-0.39511 0.0141,-0.16651 0.031,-0.27658 0.0169,-0.11007 0.0311,-0.17498 0.0141,-0.0649 0.0141,-0.0931 0,-0.031 -0.0141,-0.0536 -0.0141,-0.0254 -0.0536,-0.0254 -0.0282,0 -0.0621,0.003 -0.0339,0.003 -0.0649,0.0113 -0.031,0.008 -0.0536,0.0254 -0.0198,0.0141 -0.0226,0.0395 0,0.0198 0.008,0.0536 0.008,0.0339 0.0169,0.0903 0.008,0.0564 0.0169,0.13829 0.008,0.0819 0.008,0.19191 0,0.13829 -0.0113,0.27094 -0.008,0.12982 -0.0311,0.27375 -0.0395,-0.0339 -0.14958,-0.14675 -0.10724,-0.11289 -0.25682,-0.27376 -0.14675,-0.16087 -0.31891,-0.3556 -0.17216,-0.19473 -0.33584,-0.38947 -0.0226,-0.0282 -0.0395,-0.0367 -0.0141,-0.0113 -0.031,-0.0113 -0.0141,0 -0.031,0.006 -0.0141,0.006 -0.0367,0.0254 l -0.1016,0.0818 q -0.031,0.0226 -0.031,0.0423 0,0.0367 0.0367,0.0508 0.0395,0.0141 0.0847,0.0339 0.048,0.0169 0.0847,0.0593 0.0395,0.0423 0.0395,0.13829 0,0.0536 -0.003,0.10725 0,0.0508 -0.003,0.10442 z" />
      <path
         id="path1723"
         style="font-style:normal;font-variant:normal;font-weight:normal;font-stretch:normal;font-family:Herculanum;-inkscape-font-specification:Herculanum;text-align:center;text-anchor:middle;fill:#ff0000;fill-opacity:1;stroke-width:0.264583"
         d="m 233.48037,-450.54304 -0.0226,0.16933 q -0.006,0.0339 -0.0339,0.0677 -0.0254,0.0339 -0.0734,0.0621 -0.0452,0.0282 -0.11006,0.048 -0.0621,0.0169 -0.13829,0.0169 -0.0875,0 -0.16369,-0.0197 -0.0762,-0.0198 -0.13547,-0.0706 -0.0564,-0.0536 -0.0903,-0.14958 -0.031,-0.0959 -0.031,-0.24835 0,-0.13547 0.0536,-0.28505 0.0536,-0.1524 0.14676,-0.2794 0.0931,-0.127 0.21448,-0.20884 0.12418,-0.0847 0.26247,-0.0847 0.0367,0 0.0621,0.008 0.0254,0.006 0.0536,0.031 0.0621,0.0565 0.0819,0.0734 0.0226,0.0169 0.0423,0.0169 0.0141,0 0.0367,-0.008 0.0226,-0.0113 0.0451,-0.0254 0.0226,-0.0169 0.0395,-0.0367 0.0169,-0.0226 0.0169,-0.0423 0,-0.0762 -0.0847,-0.11007 -0.0847,-0.0367 -0.24553,-0.0367 -0.24271,0 -0.41769,0.0847 -0.17498,0.0818 -0.29069,0.21449 -0.11289,0.13264 -0.16651,0.30197 -0.0536,0.16934 -0.0536,0.34432 0,0.0875 0.0282,0.2032 0.031,0.11571 0.10442,0.22295 0.0734,0.10442 0.19756,0.1778 0.127,0.0734 0.32173,0.0734 0.0395,0 0.0847,-0.006 0.0452,-0.006 0.0847,-0.0113 0.0395,-0.006 0.0677,-0.0113 0.031,-0.006 0.0423,-0.006 0.0734,0 0.0847,0.0734 0.0113,0.0734 0.0197,0.11853 0.0113,0.0452 0.0226,0.0677 0.0113,0.0254 0.0226,0.0339 0.0113,0.008 0.0282,0.008 0.0508,0 0.0649,-0.0169 0.0169,-0.0169 0.0169,-0.0564 0,-0.0818 -0.0141,-0.19755 -0.0113,-0.11854 -0.0113,-0.30763 0,-0.0903 -0.003,-0.13828 0,-0.0508 -0.008,-0.0734 -0.006,-0.0254 -0.0169,-0.031 -0.0113,-0.006 -0.0282,-0.006 -0.0621,0 -0.0818,0.0113 -0.0198,0.0113 -0.0254,0.0367 z" />
    </g>
  </g>
</svg>
